<?xml version="1.0" encoding="UTF-8" standalone="no"?><!DOCTYPE svg PUBLIC "-//W3C//DTD SVG 1.1//EN" "http://www.w3.org/Graphics/SVG/1.1/DTD/svg11.dtd"><svg width="100%" height="100%" viewBox="0 0 7 7" version="1.1" xmlns="http://www.w3.org/2000/svg" xmlns:xlink="http://www.w3.org/1999/xlink" xml:space="preserve" xmlns:serif="http://www.serif.com/" style="fill-rule:evenodd;clip-rule:evenodd;stroke-linecap:round;stroke-linejoin:round;stroke-miterlimit:1.5;"><rect id="_1-full-ebike" serif:id="1-full-ebike" x="0.206" y="0.204" width="6.002" height="6.424" style="fill:none;"/><g id="_1-full-ebike1" serif:id="1-full-ebike"><g><path d="M4.87,1.83c0.001,-0.004 -0.01,-0.01 -0.012,-0.011c-0.016,-0.008 -0.035,-0.013 -0.052,-0.018c-0.065,-0.02 -0.154,-0.026 -0.221,-0.019c-0.055,0.005 -0.124,0.026 -0.168,0.061c-0.117,0.094 -0.145,0.265 -0.097,0.409c0.02,0.059 0.047,0.119 0.097,0.159c0.088,0.071 0.215,0.109 0.322,0.086c0.056,-0.011 0.103,-0.041 0.149,-0.071c0.037,-0.025 0.075,-0.051 0.098,-0.091c0.025,-0.046 0.034,-0.117 0.036,-0.17c0.003,-0.1 -0.04,-0.207 -0.102,-0.285c-0.015,-0.019 -0.033,-0.032 -0.053,-0.046c-0.006,-0.005 -0.021,-0.006 -0.026,-0.012" style="fill:none;stroke:#cd3a43;stroke-width:0.14px;"/><path d="M4.682,2.098c0.006,0.005 0.04,0 0.052,0c0.059,-0.001 0.115,-0.011 0.173,-0.015c0.05,-0.004 0.1,-0 0.149,-0.011c0.045,-0.01 0.087,-0.028 0.128,-0.048c0.045,-0.022 0.093,-0.036 0.136,-0.061c0.117,-0.07 0.251,-0.234 0.158,-0.381" style="fill:none;stroke:#cd3a43;stroke-width:0.14px;"/><path d="M5.329,1.465c0.001,-0.004 0.025,0.014 0.037,0.022c0.028,0.016 0.055,0.033 0.083,0.051c0.046,0.029 0.099,0.062 0.15,0.082c0.012,0.004 0.049,0.012 0.055,0.021" style="fill:none;stroke:#cd3a43;stroke-width:0.14px;"/><path d="M5.322,2.02c0.03,0.06 0.075,0.116 0.111,0.174c0.044,0.07 0.081,0.143 0.124,0.213c0.022,0.035 0.044,0.069 0.07,0.101c0.006,0.007 0.013,0.027 0.021,0.03c0.017,0.007 0.04,-0.001 0.057,-0c0.052,0.002 0.104,-0.007 0.154,-0.004" style="fill:none;stroke:#cd3a43;stroke-width:0.14px;"/><path d="M5.819,2.384c0.004,-0.001 0.036,0.05 0.039,0.054c0.035,0.05 0.078,0.104 0.109,0.153" style="fill:none;stroke:#cd3a43;stroke-width:0.14px;"/><path d="M5.617,2.582c-0.021,0.023 -0.027,0.064 -0.039,0.093c-0.022,0.052 -0.052,0.101 -0.078,0.15c-0.044,0.083 -0.104,0.157 -0.149,0.238c-0.013,0.024 -0.041,0.047 -0.046,0.076" style="fill:none;stroke:#cd3a43;stroke-width:0.14px;"/><path d="M5.505,2.819c0,-0.003 -0.011,-0.009 -0.013,-0.01c-0.017,-0.01 -0.036,-0.017 -0.053,-0.025c-0.08,-0.037 -0.152,-0.051 -0.238,-0.046c-0.125,0.007 -0.258,0.117 -0.281,0.244c-0.01,0.053 0.005,0.109 0.021,0.161c0.024,0.08 0.052,0.156 0.117,0.214c0.032,0.029 0.068,0.042 0.108,0.055c0.108,0.034 0.208,0.023 0.303,-0.032c0.026,-0.016 0.054,-0.027 0.073,-0.052c0.095,-0.119 0.112,-0.321 0.012,-0.451c-0.023,-0.029 -0.045,-0.059 -0.078,-0.078" style="fill:none;stroke:#cd3a43;stroke-width:0.14px;"/></g><ellipse cx="2.965" cy="3.934" rx="2.114" ry="2.101" style="fill:#fff;stroke:#cd3a43;stroke-width:0.19px;"/><g><path d="M3.08,3.106c-0.001,-0.003 -0.013,-0.001 -0.015,-0c-0.018,0.003 -0.036,0.012 -0.052,0.019c-0.063,0.026 -0.136,0.078 -0.183,0.125c-0.039,0.04 -0.079,0.099 -0.09,0.154c-0.031,0.148 0.057,0.297 0.185,0.377c0.053,0.033 0.112,0.063 0.176,0.062c0.113,-0.001 0.235,-0.053 0.303,-0.138c0.036,-0.045 0.054,-0.097 0.07,-0.151c0.013,-0.042 0.025,-0.086 0.017,-0.132c-0.009,-0.051 -0.048,-0.112 -0.08,-0.154c-0.061,-0.079 -0.163,-0.134 -0.26,-0.155c-0.023,-0.005 -0.046,-0.004 -0.07,-0.002c-0.008,0.001 -0.02,0.01 -0.028,0.007" style="fill:none;stroke:#cd3a43;stroke-width:0.14px;"/><path d="M3.106,3.433c0.008,-0 0.031,-0.026 0.041,-0.034c0.044,-0.038 0.081,-0.081 0.123,-0.121c0.036,-0.035 0.078,-0.064 0.108,-0.104c0.028,-0.036 0.05,-0.076 0.068,-0.118c0.021,-0.045 0.049,-0.087 0.066,-0.134c0.046,-0.128 0.045,-0.339 -0.12,-0.394" style="fill:none;stroke:#cd3a43;stroke-width:0.14px;"/><path d="M3.202,2.532c-0.001,-0.003 0.029,-0.004 0.043,-0.006c0.032,-0.005 0.064,-0.009 0.096,-0.013c0.055,-0.007 0.117,-0.015 0.169,-0.033c0.011,-0.004 0.045,-0.022 0.055,-0.018" style="fill:none;stroke:#cd3a43;stroke-width:0.14px;"/><path d="M3.55,2.965c0.061,0.028 0.133,0.042 0.197,0.063c0.078,0.026 0.153,0.06 0.231,0.086c0.039,0.013 0.077,0.026 0.118,0.033c0.009,0.002 0.027,0.013 0.035,0.01c0.018,-0.005 0.03,-0.026 0.044,-0.036c0.041,-0.031 0.076,-0.072 0.116,-0.101" style="fill:none;stroke:#cd3a43;stroke-width:0.14px;"/><path d="M4.165,2.93c0.003,-0.004 0.06,0.016 0.065,0.017c0.058,0.016 0.126,0.031 0.181,0.049" style="fill:none;stroke:#cd3a43;stroke-width:0.14px;"/><path d="M4.136,3.211c-0.002,0.032 0.019,0.067 0.028,0.097c0.017,0.054 0.025,0.111 0.036,0.166c0.018,0.091 0.02,0.186 0.036,0.278c0.006,0.027 -0.001,0.062 0.013,0.088" style="fill:none;stroke:#cd3a43;stroke-width:0.14px;"/><path d="M4.2,3.466c-0.002,-0.003 -0.015,-0 -0.017,-0c-0.019,0.003 -0.038,0.009 -0.057,0.014c-0.084,0.023 -0.149,0.058 -0.212,0.116c-0.093,0.085 -0.125,0.255 -0.062,0.368c0.026,0.047 0.073,0.08 0.118,0.11c0.071,0.047 0.14,0.087 0.227,0.091c0.043,0.002 0.08,-0.011 0.119,-0.027c0.105,-0.042 0.175,-0.114 0.213,-0.217c0.01,-0.029 0.024,-0.055 0.024,-0.087c-0.003,-0.151 -0.119,-0.319 -0.278,-0.355c-0.037,-0.008 -0.073,-0.017 -0.11,-0.011" style="fill:none;stroke:#cd3a43;stroke-width:0.14px;"/></g><g><path d="M1.949,4.51c-0.001,-0.003 -0.013,-0.001 -0.015,-0c-0.018,0.003 -0.036,0.012 -0.052,0.019c-0.063,0.026 -0.136,0.078 -0.182,0.125c-0.04,0.04 -0.08,0.099 -0.091,0.154c-0.031,0.148 0.057,0.297 0.185,0.377c0.053,0.033 0.113,0.063 0.176,0.062c0.113,-0.001 0.235,-0.053 0.303,-0.138c0.036,-0.045 0.054,-0.097 0.07,-0.151c0.013,-0.042 0.026,-0.086 0.017,-0.131c-0.009,-0.052 -0.047,-0.113 -0.08,-0.155c-0.06,-0.079 -0.162,-0.134 -0.26,-0.155c-0.023,-0.005 -0.046,-0.004 -0.07,-0.002c-0.008,0.001 -0.02,0.01 -0.028,0.007" style="fill:none;stroke:#cd3a43;stroke-width:0.14px;"/><path d="M1.976,4.837c0.007,-0 0.031,-0.026 0.04,-0.034c0.044,-0.038 0.081,-0.081 0.123,-0.121c0.036,-0.035 0.078,-0.064 0.108,-0.104c0.029,-0.036 0.05,-0.076 0.069,-0.118c0.02,-0.045 0.049,-0.087 0.065,-0.134c0.047,-0.128 0.046,-0.339 -0.12,-0.394" style="fill:none;stroke:#cd3a43;stroke-width:0.14px;"/><path d="M2.072,3.937c-0.002,-0.004 0.028,-0.005 0.042,-0.007c0.032,-0.005 0.064,-0.009 0.096,-0.013c0.055,-0.007 0.117,-0.015 0.169,-0.033c0.012,-0.004 0.045,-0.022 0.055,-0.018" style="fill:none;stroke:#cd3a43;stroke-width:0.14px;"/><path d="M2.419,4.369c0.062,0.028 0.133,0.042 0.197,0.063c0.078,0.026 0.153,0.06 0.231,0.086c0.039,0.013 0.078,0.026 0.118,0.033c0.009,0.002 0.027,0.013 0.036,0.01c0.017,-0.005 0.03,-0.026 0.043,-0.036c0.041,-0.031 0.077,-0.071 0.117,-0.101" style="fill:none;stroke:#cd3a43;stroke-width:0.14px;"/><path d="M3.034,4.334c0.003,-0.004 0.061,0.016 0.065,0.017c0.058,0.016 0.126,0.031 0.181,0.049" style="fill:none;stroke:#cd3a43;stroke-width:0.14px;"/><path d="M3.005,4.615c-0.002,0.032 0.019,0.067 0.029,0.097c0.016,0.054 0.024,0.111 0.035,0.166c0.018,0.091 0.02,0.186 0.037,0.278c0.005,0.027 -0.002,0.062 0.012,0.088" style="fill:none;stroke:#cd3a43;stroke-width:0.14px;"/><path d="M3.069,4.87c-0.001,-0.003 -0.015,-0 -0.017,-0c-0.019,0.003 -0.038,0.009 -0.057,0.014c-0.084,0.023 -0.149,0.058 -0.212,0.116c-0.092,0.085 -0.125,0.255 -0.062,0.368c0.027,0.047 0.074,0.08 0.119,0.11c0.07,0.047 0.139,0.087 0.226,0.091c0.044,0.002 0.08,-0.011 0.119,-0.027c0.105,-0.042 0.175,-0.114 0.213,-0.217c0.01,-0.029 0.024,-0.055 0.024,-0.086c-0.003,-0.152 -0.119,-0.32 -0.278,-0.356c-0.037,-0.008 -0.073,-0.017 -0.11,-0.011" style="fill:none;stroke:#cd3a43;stroke-width:0.14px;"/></g><path d="M3.5,0.473c-0.026,0.02 -0.042,0.058 -0.061,0.084c-0.042,0.059 -0.085,0.119 -0.131,0.175c-0.13,0.162 -0.288,0.303 -0.41,0.471c-0.039,0.054 -0.082,0.099 -0.128,0.148c-0.019,0.02 -0.048,0.046 -0.053,0.075c-0.005,0.028 0.043,0.012 0.062,0.015c0.068,0.012 0.14,0.001 0.207,0.019c0.024,0.007 0.049,0.009 0.073,0.012c0.008,0.001 0.016,0.001 0.024,0.001c0.004,-0 0.016,-0.002 0.012,-0.002c-0.004,0 -0.012,0.045 -0.013,0.048c-0.015,0.053 -0.027,0.108 -0.044,0.161c-0.041,0.129 -0.076,0.261 -0.111,0.393c-0.011,0.042 -0.018,0.085 -0.021,0.129c-0.002,0.014 -0.001,0.028 -0.002,0.042c-0.001,0.008 -0.001,0.023 -0.001,0.023c-0,-0 0.021,-0.027 0.032,-0.041c0.022,-0.029 0.045,-0.056 0.067,-0.085c0.063,-0.084 0.136,-0.161 0.202,-0.243c0.134,-0.167 0.275,-0.327 0.424,-0.48c0.039,-0.041 0.078,-0.082 0.113,-0.126c0.005,-0.007 0.035,-0.025 0.035,-0.033c-0,-0.005 -0.021,-0.006 -0.023,-0.006c-0.025,-0.003 -0.049,-0.011 -0.072,-0.019c-0.081,-0.027 -0.168,-0.031 -0.252,-0.047c-0.01,-0.002 -0.075,-0.003 -0.082,-0.01c-0.003,-0.003 0.011,-0.027 0.012,-0.029c0.015,-0.031 0.022,-0.062 0.027,-0.096c0.02,-0.145 0.05,-0.287 0.096,-0.427c0.011,-0.033 0.024,-0.066 0.034,-0.1c0.002,-0.007 0.006,-0.047 0.01,-0.047" style="fill:#fff;stroke:#cd3a43;stroke-width:0.15px;"/></g></svg>