<?xml version="1.0" encoding="UTF-8" standalone="no"?><!DOCTYPE svg PUBLIC "-//W3C//DTD SVG 1.1//EN" "http://www.w3.org/Graphics/SVG/1.1/DTD/svg11.dtd"><svg width="100%" height="100%" viewBox="0 0 7 6" version="1.1" xmlns="http://www.w3.org/2000/svg" xmlns:xlink="http://www.w3.org/1999/xlink" xml:space="preserve" xmlns:serif="http://www.serif.com/" style="fill-rule:evenodd;clip-rule:evenodd;stroke-linecap:round;stroke-linejoin:round;stroke-miterlimit:1.5;"><rect id="_1-full" serif:id="1-full" x="0.165" y="0.073" width="6.002" height="5.741" style="fill:none;"/><g id="_1-full1" serif:id="1-full"><g><path d="M4.829,1.015c0.001,-0.003 -0.01,-0.009 -0.012,-0.01c-0.016,-0.009 -0.035,-0.013 -0.052,-0.018c-0.065,-0.02 -0.154,-0.026 -0.221,-0.02c-0.055,0.006 -0.124,0.027 -0.168,0.062c-0.117,0.094 -0.145,0.265 -0.097,0.409c0.02,0.058 0.047,0.119 0.097,0.159c0.088,0.071 0.215,0.109 0.322,0.086c0.056,-0.011 0.103,-0.041 0.149,-0.071c0.037,-0.025 0.075,-0.051 0.097,-0.091c0.026,-0.046 0.035,-0.117 0.037,-0.17c0.003,-0.1 -0.04,-0.207 -0.102,-0.285c-0.015,-0.019 -0.033,-0.033 -0.053,-0.046c-0.006,-0.005 -0.022,-0.006 -0.026,-0.013" style="fill:none;stroke:#cd3a43;stroke-width:0.14px;"/><path d="M4.641,1.284c0.006,0.005 0.04,0 0.052,-0c0.059,-0.002 0.115,-0.011 0.173,-0.015c0.05,-0.004 0.1,-0 0.149,-0.011c0.045,-0.01 0.087,-0.028 0.128,-0.048c0.044,-0.022 0.093,-0.036 0.136,-0.061c0.117,-0.07 0.251,-0.234 0.158,-0.382" style="fill:none;stroke:#cd3a43;stroke-width:0.14px;"/><path d="M5.288,0.651c0.001,-0.004 0.025,0.014 0.037,0.021c0.028,0.017 0.055,0.034 0.083,0.052c0.046,0.029 0.099,0.062 0.15,0.082c0.012,0.004 0.049,0.012 0.054,0.02" style="fill:none;stroke:#cd3a43;stroke-width:0.14px;"/><path d="M5.281,1.206c0.03,0.06 0.075,0.116 0.111,0.173c0.044,0.07 0.08,0.144 0.124,0.214c0.022,0.035 0.044,0.069 0.07,0.101c0.006,0.007 0.013,0.026 0.021,0.03c0.017,0.007 0.04,-0.001 0.057,-0.001c0.051,0.003 0.104,-0.006 0.154,-0.003" style="fill:none;stroke:#cd3a43;stroke-width:0.14px;"/><path d="M5.778,1.57c0.004,-0.001 0.036,0.05 0.039,0.054c0.035,0.049 0.077,0.104 0.109,0.153" style="fill:none;stroke:#cd3a43;stroke-width:0.14px;"/><path d="M5.576,1.768c-0.021,0.023 -0.028,0.064 -0.039,0.093c-0.022,0.052 -0.052,0.101 -0.078,0.15c-0.044,0.082 -0.104,0.157 -0.149,0.238c-0.013,0.024 -0.041,0.047 -0.047,0.076" style="fill:none;stroke:#cd3a43;stroke-width:0.14px;"/><path d="M5.464,2.005c0,-0.003 -0.012,-0.009 -0.013,-0.01c-0.017,-0.01 -0.036,-0.018 -0.053,-0.026c-0.08,-0.036 -0.152,-0.05 -0.238,-0.045c-0.125,0.007 -0.258,0.117 -0.281,0.244c-0.01,0.053 0.005,0.109 0.021,0.161c0.024,0.08 0.052,0.155 0.117,0.214c0.032,0.029 0.068,0.042 0.108,0.055c0.108,0.034 0.208,0.023 0.303,-0.033c0.026,-0.015 0.054,-0.026 0.073,-0.051c0.095,-0.119 0.112,-0.322 0.012,-0.451c-0.023,-0.029 -0.045,-0.059 -0.078,-0.079" style="fill:none;stroke:#cd3a43;stroke-width:0.14px;"/></g><ellipse cx="2.924" cy="3.12" rx="2.114" ry="2.101" style="fill:#fff;stroke:#cd3a43;stroke-width:0.19px;"/><g><path d="M2.817,2.211c-0.001,-0.003 -0.013,-0 -0.016,-0c-0.018,0.003 -0.035,0.012 -0.052,0.019c-0.062,0.026 -0.135,0.078 -0.182,0.125c-0.039,0.04 -0.079,0.1 -0.091,0.155c-0.03,0.147 0.058,0.297 0.186,0.377c0.052,0.032 0.112,0.062 0.176,0.061c0.113,-0.001 0.235,-0.053 0.303,-0.138c0.035,-0.045 0.053,-0.097 0.07,-0.15c0.013,-0.043 0.025,-0.087 0.017,-0.132c-0.01,-0.052 -0.048,-0.113 -0.08,-0.155c-0.061,-0.079 -0.163,-0.134 -0.26,-0.154c-0.024,-0.005 -0.047,-0.004 -0.07,-0.003c-0.008,0.001 -0.021,0.01 -0.028,0.007" style="fill:none;stroke:#cd3a43;stroke-width:0.14px;"/><path d="M2.843,2.538c0.008,0 0.031,-0.025 0.04,-0.033c0.044,-0.039 0.082,-0.082 0.124,-0.122c0.036,-0.035 0.077,-0.064 0.108,-0.103c0.028,-0.037 0.049,-0.077 0.068,-0.119c0.021,-0.045 0.049,-0.087 0.066,-0.133c0.046,-0.129 0.045,-0.34 -0.12,-0.395" style="fill:none;stroke:#cd3a43;stroke-width:0.14px;"/><path d="M2.939,1.638c-0.001,-0.003 0.029,-0.005 0.042,-0.007c0.033,-0.005 0.065,-0.009 0.097,-0.013c0.055,-0.007 0.116,-0.015 0.168,-0.033c0.012,-0.004 0.046,-0.021 0.055,-0.018" style="fill:none;stroke:#cd3a43;stroke-width:0.14px;"/><path d="M3.287,2.07c0.061,0.028 0.132,0.042 0.196,0.064c0.079,0.026 0.153,0.059 0.232,0.085c0.039,0.013 0.077,0.026 0.118,0.034c0.009,0.001 0.027,0.012 0.035,0.01c0.018,-0.006 0.03,-0.026 0.044,-0.037c0.041,-0.031 0.076,-0.071 0.116,-0.101" style="fill:none;stroke:#cd3a43;stroke-width:0.14px;"/><path d="M3.902,2.035c0.003,-0.003 0.06,0.016 0.064,0.017c0.059,0.016 0.126,0.031 0.182,0.049" style="fill:none;stroke:#cd3a43;stroke-width:0.14px;"/><path d="M3.872,2.317c-0.001,0.031 0.02,0.067 0.029,0.096c0.016,0.054 0.024,0.111 0.035,0.166c0.019,0.091 0.02,0.186 0.037,0.278c0.005,0.027 -0.001,0.062 0.012,0.088" style="fill:none;stroke:#cd3a43;stroke-width:0.14px;"/><path d="M3.936,2.571c-0.001,-0.003 -0.014,-0 -0.016,0c-0.019,0.003 -0.038,0.009 -0.057,0.014c-0.085,0.023 -0.149,0.058 -0.212,0.116c-0.093,0.085 -0.125,0.255 -0.062,0.368c0.026,0.047 0.073,0.081 0.118,0.11c0.07,0.047 0.14,0.087 0.227,0.091c0.043,0.002 0.079,-0.011 0.118,-0.026c0.105,-0.043 0.175,-0.115 0.213,-0.218c0.011,-0.029 0.025,-0.055 0.024,-0.086c-0.002,-0.152 -0.118,-0.319 -0.277,-0.356c-0.037,-0.008 -0.073,-0.017 -0.111,-0.011" style="fill:none;stroke:#cd3a43;stroke-width:0.14px;"/></g><g><path d="M1.908,3.696c-0.001,-0.003 -0.013,-0.001 -0.015,-0c-0.018,0.003 -0.036,0.012 -0.052,0.019c-0.063,0.026 -0.136,0.077 -0.183,0.125c-0.039,0.04 -0.079,0.099 -0.09,0.154c-0.031,0.148 0.057,0.297 0.185,0.377c0.053,0.033 0.112,0.063 0.176,0.062c0.113,-0.002 0.235,-0.053 0.303,-0.139c0.036,-0.044 0.054,-0.097 0.07,-0.15c0.013,-0.042 0.025,-0.086 0.017,-0.132c-0.009,-0.051 -0.047,-0.112 -0.08,-0.154c-0.061,-0.079 -0.163,-0.134 -0.26,-0.155c-0.023,-0.005 -0.046,-0.004 -0.07,-0.002c-0.008,0 -0.02,0.009 -0.028,0.007" style="fill:none;stroke:#cd3a43;stroke-width:0.14px;"/><path d="M1.935,4.023c0.007,-0 0.03,-0.026 0.04,-0.034c0.044,-0.038 0.081,-0.081 0.123,-0.121c0.036,-0.035 0.078,-0.064 0.108,-0.104c0.028,-0.036 0.05,-0.077 0.069,-0.118c0.02,-0.045 0.048,-0.087 0.065,-0.134c0.046,-0.128 0.045,-0.34 -0.12,-0.394" style="fill:none;stroke:#cd3a43;stroke-width:0.14px;"/><path d="M2.03,3.122c-0.001,-0.003 0.029,-0.004 0.043,-0.006c0.032,-0.005 0.064,-0.01 0.096,-0.013c0.055,-0.007 0.117,-0.015 0.169,-0.033c0.012,-0.004 0.045,-0.022 0.055,-0.018" style="fill:none;stroke:#cd3a43;stroke-width:0.14px;"/><path d="M2.378,3.555c0.061,0.028 0.133,0.042 0.197,0.063c0.078,0.026 0.153,0.06 0.231,0.086c0.039,0.013 0.078,0.026 0.118,0.033c0.009,0.002 0.027,0.013 0.036,0.01c0.017,-0.005 0.029,-0.026 0.043,-0.036c0.041,-0.031 0.076,-0.072 0.116,-0.101" style="fill:none;stroke:#cd3a43;stroke-width:0.14px;"/><path d="M2.993,3.52c0.003,-0.004 0.061,0.016 0.065,0.017c0.058,0.016 0.126,0.03 0.181,0.049" style="fill:none;stroke:#cd3a43;stroke-width:0.14px;"/><path d="M2.964,3.801c-0.002,0.032 0.019,0.067 0.028,0.097c0.017,0.054 0.025,0.111 0.036,0.165c0.018,0.092 0.02,0.187 0.037,0.278c0.005,0.028 -0.002,0.063 0.012,0.089" style="fill:none;stroke:#cd3a43;stroke-width:0.14px;"/><path d="M3.028,4.056c-0.001,-0.003 -0.015,-0.001 -0.017,-0c-0.019,0.003 -0.038,0.009 -0.057,0.014c-0.084,0.022 -0.149,0.058 -0.212,0.116c-0.093,0.085 -0.125,0.255 -0.062,0.367c0.026,0.048 0.074,0.081 0.118,0.111c0.071,0.047 0.14,0.087 0.227,0.091c0.043,0.002 0.08,-0.011 0.119,-0.027c0.105,-0.042 0.175,-0.114 0.213,-0.217c0.01,-0.029 0.024,-0.055 0.024,-0.087c-0.003,-0.152 -0.119,-0.319 -0.278,-0.355c-0.037,-0.008 -0.073,-0.017 -0.11,-0.011" style="fill:none;stroke:#cd3a43;stroke-width:0.14px;"/></g></g></svg>