<?xml version="1.0" encoding="UTF-8" standalone="no"?><!DOCTYPE svg PUBLIC "-//W3C//DTD SVG 1.1//EN" "http://www.w3.org/Graphics/SVG/1.1/DTD/svg11.dtd"><svg width="100%" height="100%" viewBox="0 0 6 7" version="1.1" xmlns="http://www.w3.org/2000/svg" xmlns:xlink="http://www.w3.org/1999/xlink" xml:space="preserve" xmlns:serif="http://www.serif.com/" style="fill-rule:evenodd;clip-rule:evenodd;stroke-linecap:round;stroke-linejoin:round;stroke-miterlimit:1.5;"><rect id="_1-high-ebike" serif:id="1-high-ebike" x="0.169" y="0.234" width="5.381" height="6.355" style="fill:none;"/><g id="_1-high-ebike1" serif:id="1-high-ebike"><ellipse cx="2.928" cy="3.895" rx="2.114" ry="2.101" style="fill:none;stroke:#de5126;stroke-width:0.19px;"/><g><path d="M2.798,3.04c-0.001,-0.004 -0.013,-0.001 -0.016,-0.001c-0.017,0.004 -0.035,0.012 -0.052,0.019c-0.062,0.027 -0.135,0.078 -0.182,0.126c-0.039,0.039 -0.079,0.099 -0.091,0.154c-0.03,0.148 0.058,0.297 0.186,0.377c0.053,0.033 0.112,0.063 0.176,0.062c0.113,-0.002 0.235,-0.054 0.303,-0.139c0.035,-0.044 0.053,-0.097 0.07,-0.15c0.013,-0.042 0.025,-0.087 0.017,-0.132c-0.009,-0.052 -0.048,-0.112 -0.08,-0.154c-0.061,-0.079 -0.163,-0.135 -0.26,-0.155c-0.024,-0.005 -0.047,-0.004 -0.07,-0.002c-0.008,0 -0.021,0.009 -0.028,0.007" style="fill:none;stroke:#de5126;stroke-width:0.14px;"/><path d="M2.824,3.367c0.008,-0.001 0.031,-0.026 0.04,-0.034c0.044,-0.038 0.082,-0.082 0.124,-0.122c0.036,-0.034 0.077,-0.063 0.108,-0.103c0.028,-0.036 0.049,-0.077 0.068,-0.118c0.021,-0.045 0.049,-0.087 0.066,-0.134c0.046,-0.128 0.045,-0.34 -0.12,-0.395" style="fill:none;stroke:#de5126;stroke-width:0.14px;"/><path d="M2.92,2.466c-0.001,-0.003 0.029,-0.004 0.042,-0.006c0.033,-0.005 0.065,-0.01 0.097,-0.014c0.055,-0.006 0.116,-0.014 0.169,-0.032c0.011,-0.004 0.045,-0.022 0.054,-0.019" style="fill:none;stroke:#de5126;stroke-width:0.14px;"/><path d="M3.268,2.899c0.061,0.028 0.132,0.042 0.196,0.063c0.079,0.026 0.153,0.06 0.232,0.086c0.039,0.013 0.077,0.025 0.118,0.033c0.009,0.002 0.027,0.013 0.035,0.01c0.018,-0.005 0.03,-0.026 0.044,-0.036c0.041,-0.031 0.076,-0.072 0.116,-0.101" style="fill:none;stroke:#de5126;stroke-width:0.14px;"/><path d="M3.883,2.864c0.003,-0.004 0.06,0.015 0.064,0.016c0.059,0.016 0.126,0.031 0.182,0.05" style="fill:none;stroke:#de5126;stroke-width:0.14px;"/><path d="M3.853,3.145c-0.001,0.031 0.02,0.067 0.029,0.097c0.017,0.053 0.024,0.111 0.036,0.165c0.018,0.092 0.019,0.187 0.036,0.278c0.005,0.028 -0.001,0.063 0.013,0.088" style="fill:none;stroke:#de5126;stroke-width:0.14px;"/><path d="M3.918,3.399c-0.002,-0.002 -0.015,0 -0.017,0c-0.019,0.004 -0.038,0.01 -0.057,0.015c-0.085,0.022 -0.149,0.058 -0.212,0.116c-0.093,0.085 -0.125,0.254 -0.062,0.367c0.026,0.047 0.073,0.081 0.118,0.111c0.071,0.046 0.14,0.087 0.227,0.091c0.043,0.001 0.08,-0.012 0.118,-0.027c0.106,-0.042 0.176,-0.115 0.213,-0.218c0.011,-0.028 0.025,-0.054 0.024,-0.086c-0.002,-0.152 -0.118,-0.319 -0.277,-0.355c-0.037,-0.008 -0.073,-0.018 -0.11,-0.012" style="fill:none;stroke:#de5126;stroke-width:0.14px;"/></g><g><path d="M1.889,4.524c-0.001,-0.003 -0.013,-0 -0.015,0c-0.018,0.003 -0.036,0.012 -0.052,0.019c-0.063,0.026 -0.136,0.078 -0.182,0.125c-0.04,0.04 -0.08,0.1 -0.091,0.155c-0.031,0.147 0.057,0.297 0.185,0.377c0.053,0.033 0.112,0.062 0.176,0.061c0.113,-0.001 0.235,-0.053 0.303,-0.138c0.036,-0.045 0.054,-0.097 0.07,-0.15c0.013,-0.043 0.026,-0.087 0.017,-0.132c-0.009,-0.052 -0.047,-0.113 -0.08,-0.155c-0.061,-0.079 -0.162,-0.134 -0.26,-0.154c-0.023,-0.005 -0.046,-0.004 -0.07,-0.003c-0.008,0.001 -0.02,0.01 -0.028,0.007" style="fill:none;stroke:#de5126;stroke-width:0.14px;"/><path d="M1.916,4.851c0.007,0 0.03,-0.025 0.04,-0.033c0.044,-0.039 0.081,-0.082 0.123,-0.122c0.036,-0.035 0.078,-0.064 0.108,-0.103c0.028,-0.037 0.05,-0.077 0.069,-0.119c0.02,-0.045 0.049,-0.087 0.065,-0.133c0.047,-0.129 0.045,-0.34 -0.12,-0.395" style="fill:none;stroke:#de5126;stroke-width:0.14px;"/><path d="M2.012,3.951c-0.002,-0.003 0.028,-0.005 0.042,-0.007c0.032,-0.005 0.064,-0.009 0.096,-0.013c0.055,-0.007 0.117,-0.015 0.169,-0.033c0.012,-0.004 0.045,-0.021 0.055,-0.018" style="fill:none;stroke:#de5126;stroke-width:0.14px;"/><path d="M2.359,4.383c0.062,0.028 0.133,0.042 0.197,0.064c0.078,0.026 0.153,0.059 0.231,0.085c0.039,0.013 0.078,0.026 0.118,0.034c0.009,0.001 0.027,0.012 0.036,0.01c0.017,-0.006 0.03,-0.026 0.043,-0.037c0.041,-0.031 0.077,-0.071 0.116,-0.101" style="fill:none;stroke:#de5126;stroke-width:0.14px;"/><path d="M2.974,4.348c0.003,-0.003 0.061,0.016 0.065,0.017c0.058,0.016 0.126,0.031 0.181,0.049" style="fill:none;stroke:#de5126;stroke-width:0.14px;"/><path d="M2.945,4.63c-0.002,0.031 0.019,0.067 0.029,0.096c0.016,0.054 0.024,0.111 0.035,0.166c0.018,0.091 0.02,0.186 0.037,0.278c0.005,0.027 -0.002,0.062 0.012,0.088" style="fill:none;stroke:#de5126;stroke-width:0.14px;"/><path d="M3.009,4.884c-0.001,-0.003 -0.015,-0 -0.017,0c-0.019,0.003 -0.038,0.009 -0.057,0.014c-0.084,0.023 -0.149,0.058 -0.212,0.116c-0.092,0.085 -0.125,0.255 -0.062,0.368c0.027,0.047 0.074,0.081 0.118,0.11c0.071,0.047 0.14,0.087 0.227,0.091c0.044,0.002 0.08,-0.011 0.119,-0.026c0.105,-0.043 0.175,-0.115 0.213,-0.218c0.01,-0.029 0.024,-0.055 0.024,-0.086c-0.003,-0.152 -0.119,-0.319 -0.278,-0.356c-0.037,-0.008 -0.073,-0.017 -0.11,-0.011" style="fill:none;stroke:#de5126;stroke-width:0.14px;"/></g><path d="M3.388,0.349c-0.026,0.02 -0.042,0.058 -0.061,0.084c-0.041,0.06 -0.085,0.119 -0.131,0.176c-0.13,0.162 -0.287,0.302 -0.409,0.47c-0.039,0.054 -0.083,0.1 -0.128,0.148c-0.02,0.021 -0.049,0.046 -0.054,0.076c-0.005,0.028 0.043,0.012 0.063,0.015c0.067,0.011 0.14,0 0.206,0.019c0.024,0.006 0.049,0.008 0.073,0.012c0.008,0.001 0.017,0 0.025,0c0.004,0 0.015,-0.001 0.011,-0.001c-0.004,-0 -0.012,0.044 -0.013,0.048c-0.015,0.053 -0.027,0.108 -0.043,0.16c-0.042,0.13 -0.077,0.262 -0.112,0.393c-0.011,0.043 -0.018,0.085 -0.021,0.129c-0.001,0.014 -0,0.029 -0.002,0.043c-0,0.007 -0.001,0.022 -0.001,0.022c-0,0 0.021,-0.027 0.032,-0.041c0.022,-0.028 0.046,-0.056 0.067,-0.085c0.064,-0.084 0.137,-0.161 0.203,-0.243c0.134,-0.166 0.274,-0.326 0.423,-0.48c0.039,-0.04 0.078,-0.081 0.113,-0.126c0.006,-0.007 0.035,-0.025 0.035,-0.032c0,-0.005 -0.02,-0.006 -0.023,-0.007c-0.025,-0.003 -0.048,-0.011 -0.072,-0.019c-0.081,-0.027 -0.167,-0.031 -0.251,-0.046c-0.011,-0.002 -0.076,-0.004 -0.083,-0.01c-0.003,-0.004 0.011,-0.027 0.013,-0.03c0.015,-0.031 0.022,-0.061 0.027,-0.095c0.02,-0.145 0.049,-0.288 0.095,-0.427c0.011,-0.034 0.024,-0.067 0.034,-0.101c0.002,-0.006 0.006,-0.046 0.01,-0.046" style="fill:#fff;stroke:#de5126;stroke-width:0.15px;"/></g></svg>