<?xml version="1.0" encoding="UTF-8" standalone="no"?><!DOCTYPE svg PUBLIC "-//W3C//DTD SVG 1.1//EN" "http://www.w3.org/Graphics/SVG/1.1/DTD/svg11.dtd"><svg width="100%" height="100%" viewBox="0 0 6 7" version="1.1" xmlns="http://www.w3.org/2000/svg" xmlns:xlink="http://www.w3.org/1999/xlink" xml:space="preserve" xmlns:serif="http://www.serif.com/" style="fill-rule:evenodd;clip-rule:evenodd;stroke-linecap:round;stroke-linejoin:round;stroke-miterlimit:1.5;"><rect id="_1-high-many-ebike" serif:id="1-high-many-ebike" x="0.169" y="0.057" width="5.381" height="6.355" style="fill:none;"/><g id="_1-high-many-ebike1" serif:id="1-high-many-ebike"><ellipse cx="2.928" cy="3.718" rx="2.114" ry="2.101" style="fill:#fff;stroke:#de5126;stroke-width:0.19px;"/><g><path d="M2.798,2.862c-0.001,-0.003 -0.013,-0 -0.016,0c-0.017,0.003 -0.035,0.012 -0.052,0.019c-0.062,0.026 -0.135,0.078 -0.182,0.125c-0.039,0.04 -0.079,0.1 -0.091,0.155c-0.03,0.147 0.058,0.297 0.186,0.377c0.053,0.033 0.112,0.062 0.176,0.061c0.113,-0.001 0.235,-0.053 0.303,-0.138c0.035,-0.044 0.053,-0.097 0.07,-0.15c0.013,-0.043 0.025,-0.087 0.017,-0.132c-0.009,-0.052 -0.048,-0.112 -0.08,-0.155c-0.061,-0.079 -0.163,-0.134 -0.26,-0.154c-0.024,-0.005 -0.047,-0.004 -0.07,-0.003c-0.008,0.001 -0.021,0.01 -0.028,0.007" style="fill:none;stroke:#de5126;stroke-width:0.14px;"/><path d="M2.824,3.189c0.008,0 0.031,-0.025 0.04,-0.033c0.044,-0.038 0.082,-0.082 0.124,-0.122c0.036,-0.035 0.077,-0.064 0.108,-0.103c0.028,-0.037 0.049,-0.077 0.068,-0.119c0.021,-0.045 0.049,-0.087 0.066,-0.133c0.046,-0.129 0.045,-0.34 -0.12,-0.395" style="fill:none;stroke:#de5126;stroke-width:0.14px;"/><path d="M2.92,2.289c-0.001,-0.003 0.029,-0.005 0.042,-0.007c0.033,-0.005 0.065,-0.009 0.097,-0.013c0.055,-0.007 0.116,-0.015 0.169,-0.032c0.011,-0.004 0.045,-0.022 0.054,-0.019" style="fill:none;stroke:#de5126;stroke-width:0.14px;"/><path d="M3.268,2.721c0.061,0.028 0.132,0.043 0.196,0.064c0.079,0.026 0.153,0.059 0.232,0.085c0.039,0.013 0.077,0.026 0.118,0.034c0.009,0.001 0.027,0.012 0.035,0.01c0.018,-0.006 0.03,-0.026 0.044,-0.037c0.041,-0.031 0.076,-0.071 0.116,-0.101" style="fill:none;stroke:#de5126;stroke-width:0.14px;"/><path d="M3.883,2.686c0.003,-0.003 0.06,0.016 0.064,0.017c0.059,0.016 0.126,0.031 0.182,0.049" style="fill:none;stroke:#de5126;stroke-width:0.14px;"/><path d="M3.853,2.968c-0.001,0.031 0.02,0.067 0.029,0.097c0.017,0.053 0.024,0.11 0.036,0.165c0.018,0.091 0.019,0.186 0.036,0.278c0.005,0.027 -0.001,0.062 0.013,0.088" style="fill:none;stroke:#de5126;stroke-width:0.14px;"/><path d="M3.918,3.222c-0.002,-0.003 -0.015,-0 -0.017,0c-0.019,0.004 -0.038,0.009 -0.057,0.014c-0.085,0.023 -0.149,0.058 -0.212,0.116c-0.093,0.085 -0.125,0.255 -0.062,0.368c0.026,0.047 0.073,0.081 0.118,0.11c0.071,0.047 0.14,0.087 0.227,0.091c0.043,0.002 0.08,-0.011 0.118,-0.026c0.106,-0.042 0.176,-0.115 0.213,-0.218c0.011,-0.029 0.025,-0.055 0.024,-0.086c-0.002,-0.152 -0.118,-0.319 -0.277,-0.355c-0.037,-0.009 -0.073,-0.018 -0.11,-0.012" style="fill:none;stroke:#de5126;stroke-width:0.14px;"/></g><g><path d="M1.889,4.347c-0.001,-0.003 -0.013,-0.001 -0.015,-0c-0.018,0.003 -0.036,0.012 -0.052,0.019c-0.063,0.026 -0.136,0.078 -0.182,0.125c-0.04,0.04 -0.08,0.099 -0.091,0.154c-0.031,0.148 0.057,0.297 0.185,0.377c0.053,0.033 0.112,0.063 0.176,0.062c0.113,-0.001 0.235,-0.053 0.303,-0.138c0.036,-0.045 0.054,-0.097 0.07,-0.151c0.013,-0.042 0.026,-0.086 0.017,-0.132c-0.009,-0.051 -0.047,-0.112 -0.08,-0.154c-0.061,-0.079 -0.162,-0.134 -0.26,-0.155c-0.023,-0.005 -0.046,-0.004 -0.07,-0.002c-0.008,0.001 -0.02,0.01 -0.028,0.007" style="fill:none;stroke:#de5126;stroke-width:0.14px;"/><path d="M1.916,4.674c0.007,-0 0.03,-0.026 0.04,-0.034c0.044,-0.038 0.081,-0.081 0.123,-0.121c0.036,-0.035 0.078,-0.064 0.108,-0.104c0.028,-0.036 0.05,-0.076 0.069,-0.118c0.02,-0.045 0.049,-0.087 0.065,-0.134c0.047,-0.128 0.045,-0.339 -0.12,-0.394" style="fill:none;stroke:#de5126;stroke-width:0.14px;"/><path d="M2.012,3.773c-0.002,-0.003 0.028,-0.004 0.042,-0.006c0.032,-0.005 0.064,-0.009 0.096,-0.013c0.055,-0.007 0.117,-0.015 0.169,-0.033c0.012,-0.004 0.045,-0.022 0.055,-0.018" style="fill:none;stroke:#de5126;stroke-width:0.14px;"/><path d="M2.359,4.206c0.062,0.028 0.133,0.042 0.197,0.063c0.078,0.026 0.153,0.06 0.231,0.086c0.039,0.013 0.078,0.026 0.118,0.033c0.009,0.002 0.027,0.013 0.036,0.01c0.017,-0.005 0.03,-0.026 0.043,-0.036c0.041,-0.031 0.077,-0.072 0.116,-0.101" style="fill:none;stroke:#de5126;stroke-width:0.14px;"/><path d="M2.974,4.171c0.003,-0.004 0.061,0.016 0.065,0.017c0.058,0.016 0.126,0.031 0.181,0.049" style="fill:none;stroke:#de5126;stroke-width:0.14px;"/><path d="M2.945,4.452c-0.002,0.032 0.019,0.067 0.029,0.097c0.016,0.054 0.024,0.111 0.035,0.166c0.018,0.091 0.02,0.186 0.037,0.278c0.005,0.027 -0.002,0.062 0.012,0.088" style="fill:none;stroke:#de5126;stroke-width:0.14px;"/><path d="M3.009,4.707c-0.001,-0.003 -0.015,-0 -0.017,-0c-0.019,0.003 -0.038,0.009 -0.057,0.014c-0.084,0.023 -0.149,0.058 -0.212,0.116c-0.092,0.085 -0.125,0.255 -0.062,0.368c0.027,0.047 0.074,0.08 0.118,0.11c0.071,0.047 0.14,0.087 0.227,0.091c0.044,0.002 0.08,-0.011 0.119,-0.027c0.105,-0.042 0.175,-0.114 0.213,-0.217c0.01,-0.029 0.024,-0.055 0.024,-0.087c-0.003,-0.151 -0.119,-0.319 -0.278,-0.355c-0.037,-0.008 -0.073,-0.017 -0.11,-0.011" style="fill:none;stroke:#de5126;stroke-width:0.14px;"/></g><path d="M2.795,0.293c-0.026,0.02 -0.042,0.058 -0.061,0.084c-0.042,0.059 -0.085,0.119 -0.131,0.175c-0.13,0.162 -0.288,0.303 -0.41,0.471c-0.039,0.054 -0.082,0.1 -0.128,0.148c-0.019,0.021 -0.048,0.046 -0.053,0.075c-0.005,0.029 0.043,0.012 0.062,0.016c0.068,0.011 0.141,-0 0.207,0.019c0.024,0.006 0.049,0.008 0.073,0.011c0.008,0.002 0.016,0.001 0.025,0.001c0.003,0 0.015,-0.001 0.011,-0.001c-0.004,-0 -0.012,0.044 -0.013,0.048c-0.015,0.053 -0.027,0.107 -0.044,0.16c-0.041,0.13 -0.076,0.262 -0.111,0.393c-0.011,0.042 -0.018,0.085 -0.021,0.129c-0.001,0.014 -0.001,0.028 -0.002,0.043c-0.001,0.007 -0.001,0.022 -0.001,0.022c-0,0 0.021,-0.027 0.032,-0.041c0.022,-0.028 0.045,-0.056 0.067,-0.085c0.063,-0.084 0.136,-0.161 0.202,-0.243c0.135,-0.167 0.275,-0.326 0.424,-0.48c0.039,-0.04 0.078,-0.081 0.113,-0.126c0.005,-0.007 0.035,-0.025 0.035,-0.032c-0,-0.005 -0.021,-0.007 -0.023,-0.007c-0.025,-0.003 -0.049,-0.011 -0.072,-0.019c-0.081,-0.027 -0.168,-0.031 -0.251,-0.046c-0.011,-0.002 -0.076,-0.004 -0.083,-0.011c-0.003,-0.003 0.011,-0.026 0.012,-0.029c0.015,-0.031 0.023,-0.062 0.027,-0.095c0.021,-0.145 0.05,-0.288 0.096,-0.427c0.011,-0.034 0.024,-0.067 0.034,-0.101c0.002,-0.007 0.006,-0.046 0.01,-0.046" style="fill:#fff;stroke:#de5126;stroke-width:0.15px;"/><path d="M4.014,0.293c-0.026,0.02 -0.042,0.058 -0.061,0.084c-0.042,0.059 -0.085,0.119 -0.131,0.175c-0.13,0.162 -0.288,0.303 -0.41,0.471c-0.039,0.054 -0.082,0.1 -0.128,0.148c-0.019,0.021 -0.048,0.046 -0.053,0.075c-0.005,0.029 0.043,0.012 0.062,0.016c0.068,0.011 0.14,-0 0.207,0.019c0.024,0.006 0.049,0.008 0.073,0.011c0.008,0.002 0.016,0.001 0.024,0.001c0.004,0 0.016,-0.001 0.012,-0.001c-0.004,-0 -0.012,0.044 -0.013,0.048c-0.015,0.053 -0.027,0.107 -0.044,0.16c-0.041,0.13 -0.076,0.262 -0.111,0.393c-0.011,0.042 -0.018,0.085 -0.022,0.129c-0.001,0.014 0,0.028 -0.001,0.043c-0.001,0.007 -0.001,0.022 -0.001,0.022c-0,0 0.021,-0.027 0.032,-0.041c0.022,-0.028 0.045,-0.056 0.067,-0.085c0.063,-0.084 0.136,-0.161 0.202,-0.243c0.134,-0.167 0.275,-0.326 0.424,-0.48c0.039,-0.04 0.078,-0.081 0.113,-0.126c0.005,-0.007 0.035,-0.025 0.035,-0.032c-0,-0.005 -0.021,-0.007 -0.023,-0.007c-0.025,-0.003 -0.049,-0.011 -0.072,-0.019c-0.081,-0.027 -0.168,-0.031 -0.252,-0.046c-0.01,-0.002 -0.075,-0.004 -0.082,-0.011c-0.003,-0.003 0.011,-0.026 0.012,-0.029c0.015,-0.031 0.022,-0.062 0.027,-0.095c0.02,-0.145 0.05,-0.288 0.096,-0.427c0.011,-0.034 0.024,-0.067 0.034,-0.101c0.002,-0.007 0.006,-0.046 0.01,-0.046" style="fill:#fff;stroke:#de5126;stroke-width:0.15px;"/></g></svg>