<?xml version="1.0" encoding="UTF-8" standalone="no"?><!DOCTYPE svg PUBLIC "-//W3C//DTD SVG 1.1//EN" "http://www.w3.org/Graphics/SVG/1.1/DTD/svg11.dtd"><svg width="100%" height="100%" viewBox="0 0 6 7" version="1.1" xmlns="http://www.w3.org/2000/svg" xmlns:xlink="http://www.w3.org/1999/xlink" xml:space="preserve" xmlns:serif="http://www.serif.com/" style="fill-rule:evenodd;clip-rule:evenodd;stroke-linecap:round;stroke-linejoin:round;stroke-miterlimit:1.5;"><rect id="_1-low-ebike" serif:id="1-low-ebike" x="0.222" y="0.039" width="5.381" height="6.601" style="fill:none;"/><g id="_1-low-ebike1" serif:id="1-low-ebike"><ellipse cx="2.981" cy="3.947" rx="2.114" ry="2.101" style="fill:#fff;stroke:#de5126;stroke-width:0.19px;"/><path d="M3.424,0.229c-0.026,0.02 -0.042,0.058 -0.06,0.084c-0.042,0.06 -0.086,0.119 -0.131,0.176c-0.13,0.162 -0.288,0.302 -0.41,0.47c-0.039,0.054 -0.082,0.1 -0.128,0.148c-0.019,0.021 -0.048,0.046 -0.054,0.076c-0.005,0.028 0.044,0.011 0.063,0.015c0.067,0.011 0.14,0 0.207,0.019c0.023,0.006 0.048,0.008 0.073,0.012c0.008,0.001 0.016,0 0.024,0c0.004,0 0.016,-0.001 0.012,-0.001c-0.005,-0 -0.012,0.044 -0.013,0.048c-0.016,0.053 -0.027,0.107 -0.044,0.16c-0.041,0.13 -0.076,0.262 -0.111,0.393c-0.011,0.042 -0.018,0.085 -0.022,0.129c-0.001,0.014 -0,0.028 -0.001,0.043c-0.001,0.007 -0.002,0.022 -0.002,0.022c0,0 0.022,-0.027 0.032,-0.041c0.022,-0.028 0.046,-0.056 0.068,-0.085c0.063,-0.084 0.136,-0.161 0.202,-0.243c0.134,-0.166 0.274,-0.326 0.423,-0.48c0.04,-0.04 0.079,-0.081 0.113,-0.126c0.006,-0.007 0.036,-0.025 0.036,-0.032c-0,-0.005 -0.021,-0.006 -0.024,-0.007c-0.024,-0.003 -0.048,-0.011 -0.072,-0.019c-0.081,-0.027 -0.167,-0.031 -0.251,-0.046c-0.01,-0.002 -0.075,-0.004 -0.082,-0.011c-0.004,-0.003 0.011,-0.026 0.012,-0.029c0.015,-0.031 0.022,-0.062 0.027,-0.095c0.02,-0.145 0.05,-0.288 0.095,-0.427c0.011,-0.034 0.025,-0.067 0.035,-0.101c0.002,-0.006 0.006,-0.046 0.009,-0.046" style="fill:#fff;stroke:#de5126;stroke-width:0.15px;"/><path d="M2.385,3.906c-0.002,-0.003 -0.012,0.003 -0.013,0.004c-0.014,0.008 -0.026,0.021 -0.038,0.032c-0.044,0.041 -0.09,0.108 -0.116,0.163c-0.021,0.047 -0.038,0.111 -0.032,0.163c0.015,0.138 0.128,0.244 0.255,0.277c0.053,0.014 0.11,0.022 0.162,0.003c0.093,-0.034 0.18,-0.116 0.212,-0.21c0.017,-0.05 0.018,-0.101 0.017,-0.153c-0.001,-0.041 -0.003,-0.083 -0.022,-0.121c-0.022,-0.043 -0.07,-0.085 -0.108,-0.112c-0.072,-0.052 -0.171,-0.071 -0.257,-0.061c-0.021,0.003 -0.039,0.01 -0.058,0.019c-0.007,0.003 -0.015,0.014 -0.021,0.014" style="fill:none;stroke:#de5126;stroke-width:0.12px;"/><path d="M2.496,4.186c0.006,-0.003 0.018,-0.032 0.024,-0.042c0.025,-0.046 0.044,-0.095 0.068,-0.143c0.02,-0.041 0.046,-0.078 0.061,-0.122c0.013,-0.04 0.019,-0.082 0.024,-0.124c0.004,-0.046 0.016,-0.091 0.017,-0.137c0.003,-0.127 -0.056,-0.312 -0.207,-0.312" style="fill:none;stroke:#de5126;stroke-width:0.12px;"/><path d="M2.328,3.365c-0.002,-0.002 0.023,-0.012 0.033,-0.018c0.026,-0.013 0.051,-0.027 0.076,-0.04c0.044,-0.022 0.092,-0.047 0.13,-0.077c0.009,-0.007 0.031,-0.033 0.04,-0.033" style="fill:none;stroke:#de5126;stroke-width:0.12px;"/><path d="M2.733,3.644c0.058,0.007 0.121,-0.001 0.179,-0.001c0.072,-0 0.143,0.007 0.214,0.007c0.036,0 0.071,0 0.107,-0.005c0.008,-0.001 0.025,0.003 0.032,-0.001c0.013,-0.01 0.017,-0.032 0.026,-0.045c0.025,-0.04 0.043,-0.085 0.068,-0.123" style="fill:none;stroke:#de5126;stroke-width:0.12px;"/><path d="M3.23,3.434c0.002,-0.004 0.054,-0.004 0.058,-0.004c0.053,-0.003 0.112,-0.01 0.163,-0.01" style="fill:none;stroke:#de5126;stroke-width:0.12px;"/><path d="M3.283,3.69c0.007,0.028 0.034,0.053 0.05,0.077c0.028,0.042 0.05,0.09 0.074,0.135c0.041,0.075 0.068,0.158 0.107,0.234c0.011,0.022 0.016,0.055 0.034,0.074" style="fill:none;stroke:#de5126;stroke-width:0.12px;"/><path d="M3.405,3.895c-0.001,-0.002 -0.012,0.004 -0.013,0.005c-0.015,0.009 -0.029,0.019 -0.043,0.029c-0.064,0.045 -0.107,0.095 -0.143,0.164c-0.053,0.102 -0.034,0.261 0.049,0.342c0.035,0.033 0.083,0.049 0.128,0.062c0.071,0.021 0.139,0.036 0.211,0.014c0.037,-0.011 0.063,-0.033 0.091,-0.058c0.075,-0.068 0.113,-0.152 0.116,-0.254c0.001,-0.028 0.005,-0.055 -0.004,-0.083c-0.044,-0.133 -0.185,-0.246 -0.326,-0.231c-0.033,0.003 -0.065,0.006 -0.094,0.022" style="fill:none;stroke:#de5126;stroke-width:0.12px;"/></g></svg>