<?xml version="1.0" encoding="UTF-8" standalone="no"?><!DOCTYPE svg PUBLIC "-//W3C//DTD SVG 1.1//EN" "http://www.w3.org/Graphics/SVG/1.1/DTD/svg11.dtd"><svg width="100%" height="100%" viewBox="0 0 6 7" version="1.1" xmlns="http://www.w3.org/2000/svg" xmlns:xlink="http://www.w3.org/1999/xlink" xml:space="preserve" xmlns:serif="http://www.serif.com/" style="fill-rule:evenodd;clip-rule:evenodd;stroke-linecap:round;stroke-linejoin:round;stroke-miterlimit:1.5;"><rect id="_1-low-many-ebike" serif:id="1-low-many-ebike" x="0.179" y="0.026" width="5.381" height="6.601" style="fill:none;"/><g id="_1-low-many-ebike1" serif:id="1-low-many-ebike"><ellipse cx="2.938" cy="3.933" rx="2.114" ry="2.101" style="fill:#fff;stroke:#de5126;stroke-width:0.19px;"/><path d="M2.715,0.647c-0.025,0.02 -0.041,0.058 -0.06,0.084c-0.042,0.059 -0.086,0.119 -0.131,0.175c-0.13,0.162 -0.288,0.303 -0.41,0.471c-0.039,0.054 -0.082,0.1 -0.128,0.148c-0.019,0.02 -0.048,0.046 -0.054,0.075c-0.005,0.028 0.044,0.012 0.063,0.016c0.067,0.011 0.14,-0 0.207,0.018c0.024,0.007 0.049,0.009 0.073,0.012c0.008,0.002 0.016,0.001 0.024,0.001c0.004,0 0.016,-0.001 0.012,-0.001c-0.005,-0 -0.012,0.044 -0.013,0.048c-0.015,0.053 -0.027,0.107 -0.044,0.16c-0.041,0.129 -0.076,0.261 -0.111,0.393c-0.011,0.042 -0.018,0.085 -0.022,0.129c-0.001,0.014 0,0.028 -0.001,0.042c-0.001,0.008 -0.002,0.023 -0.002,0.023c0,-0 0.022,-0.027 0.032,-0.041c0.023,-0.028 0.046,-0.056 0.068,-0.085c0.063,-0.084 0.136,-0.161 0.202,-0.243c0.134,-0.167 0.275,-0.327 0.423,-0.48c0.04,-0.04 0.079,-0.081 0.114,-0.126c0.005,-0.007 0.035,-0.025 0.035,-0.032c-0,-0.006 -0.021,-0.007 -0.023,-0.007c-0.025,-0.003 -0.049,-0.011 -0.073,-0.019c-0.08,-0.027 -0.167,-0.031 -0.251,-0.046c-0.01,-0.002 -0.075,-0.004 -0.082,-0.011c-0.004,-0.003 0.011,-0.026 0.012,-0.029c0.015,-0.031 0.022,-0.062 0.027,-0.095c0.02,-0.145 0.05,-0.288 0.096,-0.427c0.011,-0.034 0.024,-0.067 0.034,-0.101c0.002,-0.007 0.006,-0.046 0.01,-0.046" style="fill:#fff;stroke:#de5126;stroke-width:0.15px;"/><path d="M3.888,0.647c-0.025,0.02 -0.042,0.058 -0.06,0.084c-0.042,0.059 -0.086,0.119 -0.131,0.175c-0.13,0.162 -0.288,0.303 -0.41,0.471c-0.039,0.054 -0.082,0.1 -0.128,0.148c-0.019,0.02 -0.048,0.046 -0.054,0.075c-0.005,0.028 0.044,0.012 0.063,0.016c0.067,0.011 0.14,-0 0.207,0.018c0.023,0.007 0.048,0.009 0.073,0.012c0.008,0.002 0.016,0.001 0.024,0.001c0.004,0 0.016,-0.001 0.012,-0.001c-0.005,-0 -0.012,0.044 -0.013,0.048c-0.016,0.053 -0.027,0.107 -0.044,0.16c-0.041,0.129 -0.076,0.261 -0.111,0.393c-0.011,0.042 -0.018,0.085 -0.022,0.129c-0.001,0.014 0,0.028 -0.001,0.042c-0.001,0.008 -0.002,0.023 -0.002,0.023c0,-0 0.022,-0.027 0.032,-0.041c0.022,-0.028 0.046,-0.056 0.068,-0.085c0.063,-0.084 0.136,-0.161 0.202,-0.243c0.134,-0.167 0.274,-0.327 0.423,-0.48c0.04,-0.04 0.079,-0.081 0.114,-0.126c0.005,-0.007 0.035,-0.025 0.035,-0.032c-0,-0.006 -0.021,-0.007 -0.024,-0.007c-0.024,-0.003 -0.048,-0.011 -0.072,-0.019c-0.08,-0.027 -0.167,-0.031 -0.251,-0.046c-0.01,-0.002 -0.075,-0.004 -0.082,-0.011c-0.004,-0.003 0.011,-0.026 0.012,-0.029c0.015,-0.031 0.022,-0.062 0.027,-0.095c0.02,-0.145 0.05,-0.288 0.096,-0.427c0.011,-0.034 0.024,-0.067 0.034,-0.101c0.002,-0.007 0.006,-0.046 0.01,-0.046" style="fill:#fff;stroke:#de5126;stroke-width:0.15px;"/><path d="M2.342,3.893c-0.002,-0.003 -0.011,0.003 -0.013,0.004c-0.014,0.008 -0.026,0.021 -0.038,0.032c-0.044,0.041 -0.09,0.108 -0.116,0.163c-0.021,0.047 -0.038,0.111 -0.032,0.162c0.015,0.139 0.128,0.245 0.256,0.278c0.052,0.014 0.109,0.022 0.162,0.003c0.092,-0.034 0.179,-0.116 0.212,-0.211c0.017,-0.049 0.017,-0.101 0.016,-0.152c-0.001,-0.041 -0.003,-0.084 -0.022,-0.121c-0.022,-0.043 -0.07,-0.085 -0.108,-0.113c-0.072,-0.051 -0.171,-0.07 -0.257,-0.06c-0.02,0.003 -0.039,0.01 -0.058,0.019c-0.006,0.002 -0.014,0.014 -0.021,0.014" style="fill:none;stroke:#de5126;stroke-width:0.12px;"/><path d="M2.453,4.172c0.006,-0.002 0.018,-0.031 0.024,-0.041c0.026,-0.046 0.045,-0.095 0.068,-0.143c0.02,-0.041 0.047,-0.079 0.061,-0.122c0.013,-0.041 0.02,-0.082 0.024,-0.124c0.005,-0.046 0.016,-0.091 0.018,-0.137c0.002,-0.127 -0.056,-0.313 -0.208,-0.313" style="fill:none;stroke:#de5126;stroke-width:0.12px;"/><path d="M2.286,3.352c-0.002,-0.002 0.022,-0.012 0.033,-0.018c0.025,-0.014 0.05,-0.027 0.076,-0.04c0.043,-0.022 0.091,-0.047 0.13,-0.078c0.008,-0.007 0.031,-0.032 0.04,-0.032" style="fill:none;stroke:#de5126;stroke-width:0.12px;"/><path d="M2.69,3.631c0.059,0.007 0.121,-0.001 0.18,-0.001c0.071,-0 0.142,0.007 0.214,0.007c0.036,0 0.071,0 0.106,-0.005c0.008,-0.001 0.026,0.003 0.032,-0.002c0.013,-0.009 0.018,-0.031 0.026,-0.044c0.025,-0.04 0.043,-0.085 0.068,-0.123" style="fill:none;stroke:#de5126;stroke-width:0.12px;"/><path d="M3.188,3.421c0.001,-0.004 0.054,-0.004 0.057,-0.004c0.053,-0.003 0.113,-0.01 0.163,-0.01" style="fill:none;stroke:#de5126;stroke-width:0.12px;"/><path d="M3.24,3.677c0.007,0.028 0.035,0.053 0.05,0.077c0.029,0.042 0.051,0.09 0.075,0.135c0.04,0.075 0.067,0.158 0.106,0.234c0.012,0.022 0.016,0.055 0.034,0.074" style="fill:none;stroke:#de5126;stroke-width:0.12px;"/><path d="M3.363,3.882c-0.002,-0.002 -0.013,0.004 -0.014,0.005c-0.015,0.008 -0.029,0.019 -0.043,0.029c-0.064,0.044 -0.107,0.095 -0.143,0.164c-0.053,0.102 -0.033,0.261 0.049,0.342c0.035,0.033 0.083,0.049 0.128,0.062c0.071,0.021 0.139,0.036 0.212,0.014c0.036,-0.011 0.062,-0.033 0.09,-0.058c0.075,-0.068 0.113,-0.152 0.116,-0.254c0.001,-0.028 0.005,-0.055 -0.004,-0.083c-0.044,-0.133 -0.185,-0.246 -0.326,-0.231c-0.032,0.003 -0.064,0.006 -0.094,0.022" style="fill:none;stroke:#de5126;stroke-width:0.12px;"/></g></svg>