<?xml version="1.0" encoding="UTF-8" standalone="no"?><!DOCTYPE svg PUBLIC "-//W3C//DTD SVG 1.1//EN" "http://www.w3.org/Graphics/SVG/1.1/DTD/svg11.dtd"><svg width="100%" height="100%" viewBox="0 0 6 6" version="1.1" xmlns="http://www.w3.org/2000/svg" xmlns:xlink="http://www.w3.org/1999/xlink" xml:space="preserve" xmlns:serif="http://www.serif.com/" style="fill-rule:evenodd;clip-rule:evenodd;stroke-linecap:round;stroke-linejoin:round;stroke-miterlimit:1.5;"><rect id="_1-normal" serif:id="1-normal" x="0.138" y="0.099" width="5.381" height="5.435" style="fill:none;"/><g id="_1-normal1" serif:id="1-normal"><ellipse cx="2.898" cy="2.841" rx="2.114" ry="2.101" style="fill:#fff;stroke:#287121;stroke-width:0.19px;"/><path d="M1.813,2.684c-0.004,-0.005 -0.021,0.006 -0.025,0.008c-0.025,0.015 -0.048,0.039 -0.07,0.059c-0.082,0.076 -0.168,0.199 -0.216,0.301c-0.04,0.086 -0.071,0.204 -0.06,0.299c0.028,0.256 0.239,0.451 0.476,0.511c0.098,0.025 0.205,0.041 0.302,0.006c0.173,-0.063 0.334,-0.213 0.395,-0.388c0.032,-0.091 0.032,-0.186 0.03,-0.281c-0.001,-0.076 -0.005,-0.154 -0.041,-0.223c-0.04,-0.079 -0.13,-0.156 -0.201,-0.207c-0.134,-0.096 -0.318,-0.13 -0.478,-0.111c-0.039,0.004 -0.073,0.018 -0.109,0.034c-0.011,0.005 -0.026,0.026 -0.039,0.026" style="fill:none;stroke:#287121;stroke-width:0.23px;"/><path d="M2.019,3.2c0.012,-0.004 0.035,-0.058 0.045,-0.076c0.048,-0.086 0.084,-0.176 0.127,-0.264c0.038,-0.075 0.087,-0.145 0.114,-0.225c0.024,-0.074 0.036,-0.151 0.044,-0.229c0.009,-0.084 0.031,-0.167 0.033,-0.252c0.005,-0.233 -0.104,-0.575 -0.386,-0.575" style="fill:none;stroke:#287121;stroke-width:0.23px;"/><path d="M1.708,1.689c-0.004,-0.004 0.041,-0.023 0.061,-0.033c0.047,-0.026 0.094,-0.05 0.142,-0.074c0.08,-0.04 0.171,-0.086 0.242,-0.143c0.016,-0.013 0.058,-0.06 0.075,-0.06" style="fill:none;stroke:#287121;stroke-width:0.23px;"/><path d="M2.462,2.203c0.108,0.012 0.225,-0.003 0.334,-0.003c0.133,-0 0.265,0.014 0.398,0.014c0.067,-0 0.133,0 0.199,-0.009c0.014,-0.002 0.047,0.005 0.059,-0.003c0.024,-0.018 0.033,-0.059 0.049,-0.083c0.047,-0.072 0.08,-0.157 0.126,-0.226" style="fill:none;stroke:#287121;stroke-width:0.23px;"/><path d="M3.388,1.815c0.003,-0.007 0.101,-0.007 0.107,-0.007c0.099,-0.006 0.21,-0.018 0.304,-0.018" style="fill:none;stroke:#287121;stroke-width:0.23px;"/><path d="M3.486,2.287c0.013,0.052 0.064,0.098 0.094,0.141c0.052,0.078 0.093,0.167 0.138,0.249c0.075,0.139 0.126,0.292 0.198,0.431c0.022,0.042 0.03,0.102 0.064,0.136" style="fill:none;stroke:#287121;stroke-width:0.23px;"/><path d="M3.714,2.665c-0.003,-0.004 -0.023,0.007 -0.025,0.009c-0.028,0.016 -0.054,0.035 -0.08,0.054c-0.119,0.081 -0.2,0.174 -0.267,0.302c-0.099,0.187 -0.062,0.48 0.092,0.629c0.065,0.062 0.154,0.091 0.238,0.115c0.132,0.038 0.259,0.066 0.394,0.025c0.068,-0.02 0.117,-0.06 0.169,-0.107c0.14,-0.124 0.21,-0.28 0.216,-0.467c0.001,-0.052 0.01,-0.102 -0.007,-0.152c-0.082,-0.245 -0.345,-0.454 -0.608,-0.427c-0.06,0.006 -0.12,0.011 -0.175,0.041" style="fill:none;stroke:#287121;stroke-width:0.23px;"/></g></svg>