<?xml version="1.0" encoding="UTF-8" standalone="no"?><!DOCTYPE svg PUBLIC "-//W3C//DTD SVG 1.1//EN" "http://www.w3.org/Graphics/SVG/1.1/DTD/svg11.dtd"><svg width="100%" height="100%" viewBox="0 0 7 18" version="1.1" xmlns="http://www.w3.org/2000/svg" xmlns:xlink="http://www.w3.org/1999/xlink" xml:space="preserve" xmlns:serif="http://www.serif.com/" style="fill-rule:evenodd;clip-rule:evenodd;stroke-linecap:round;stroke-linejoin:round;stroke-miterlimit:1.5;"><rect id="_2-empty" serif:id="2-empty" x="0.2" y="0.218" width="6.553" height="17.705" style="fill:none;"/><g id="_2-empty1" serif:id="2-empty"><path d="M1.677,2.958c0.015,-0.034 0.035,-0.108 0.035,-0.108l0,0.684c0,0.448 0.007,0.896 -0.008,1.344c-0.043,1.338 -0.126,2.664 -0.232,3.998c-0.177,2.227 -0.131,4.418 -0.097,6.649c0.009,0.539 -0.053,1.075 -0.09,1.611c-0.005,0.074 -0.088,0.464 -0.04,0.512c0.042,0.041 0.237,-0.017 0.283,-0.024c0.271,-0.043 0.547,-0.105 0.822,-0.087c0.805,0.053 1.604,0.078 2.408,0.044c0.314,-0.013 0.64,0.009 0.946,-0.076c0.014,-0.003 0.215,-0.08 0.217,-0.082c0.028,-0.042 -0.03,-0.16 -0.038,-0.201c-0.037,-0.181 -0.044,-0.373 -0.056,-0.557c-0.051,-0.781 -0.036,-1.523 -0.004,-2.305c0.047,-1.162 -0.101,-2.297 -0.253,-3.444c-0.135,-1.021 -0.188,-2.065 -0.279,-3.092c-0.053,-0.598 -0.163,-1.191 -0.188,-1.791c-0.033,-0.754 -0.081,-1.494 -0.081,-2.249l0,-0.547c0,-0.025 0.033,-0.15 0.012,-0.171c-0.162,-0.162 -0.517,-0.107 -0.728,-0.134c-0.516,-0.067 -1.008,-0.265 -1.518,-0.367c-0.231,-0.046 -0.454,-0.123 -0.684,-0.167c-0.083,-0.016 -0.168,-0.01 -0.247,-0.03c-0.029,-0.007 -0.132,0.012 -0.094,0.012" style="fill:#fff;stroke:#cd3b44;stroke-width:0.35px;"/><path d="M1.546,4.893c-0.17,0.161 -0.361,-0.066 -0.528,-0.085c-0.106,-0.012 -0.211,0.044 -0.318,0.044c-0.048,-0.001 -0.152,0.028 -0.141,-0.047c0.049,-0.345 0.034,-0.516 0.042,-0.588c0.027,-0.243 0.034,-0.49 0.048,-0.736c0.014,-0.247 -0.003,-0.478 0.004,-0.726c0.001,-0.035 0.008,-0.481 0.04,-0.514c0.024,-0.024 0.368,0.087 0.39,0.09c0.1,0.016 0.201,0.01 0.301,0.023c0.099,0.014 0.35,0.031 0.448,0.064c0.019,0.007 -0.132,0.078 -0.132,0.095c0,0.157 0.008,0.314 0,0.471c-0.027,0.524 -0.065,1.046 -0.107,1.568c-0.009,0.115 -0.014,0.237 -0.047,0.341" style="fill:#cd3b44;stroke:#cd3b44;stroke-width:0.35px;"/></g></svg>