<?xml version="1.0" encoding="UTF-8" standalone="no"?><!DOCTYPE svg PUBLIC "-//W3C//DTD SVG 1.1//EN" "http://www.w3.org/Graphics/SVG/1.1/DTD/svg11.dtd"><svg width="100%" height="100%" viewBox="0 0 7 18" version="1.1" xmlns="http://www.w3.org/2000/svg" xmlns:xlink="http://www.w3.org/1999/xlink" xml:space="preserve" xmlns:serif="http://www.serif.com/" style="fill-rule:evenodd;clip-rule:evenodd;stroke-linecap:round;stroke-linejoin:round;stroke-miterlimit:1.5;"><rect id="_2-empty" serif:id="2-empty" x="0.011" y="0.104" width="6.553" height="17.705" style="fill:none;"/><g id="_2-empty1" serif:id="2-empty"><path d="M1.489,2.844c0.015,-0.034 0.035,-0.108 0.035,-0.108l0,0.684c0,0.448 0.007,0.896 -0.008,1.344c-0.044,1.338 -0.127,2.664 -0.232,3.998c-0.177,2.228 -0.132,4.418 -0.097,6.649c0.009,0.539 -0.053,1.075 -0.09,1.611c-0.005,0.074 -0.088,0.464 -0.04,0.512c0.041,0.041 0.237,-0.017 0.283,-0.024c0.27,-0.043 0.547,-0.105 0.822,-0.087c0.805,0.053 1.604,0.078 2.407,0.045c0.315,-0.014 0.641,0.008 0.947,-0.077c0.013,-0.003 0.215,-0.079 0.217,-0.082c0.028,-0.041 -0.03,-0.16 -0.038,-0.201c-0.038,-0.181 -0.044,-0.373 -0.056,-0.557c-0.051,-0.781 -0.036,-1.523 -0.004,-2.305c0.047,-1.162 -0.102,-2.297 -0.253,-3.444c-0.135,-1.021 -0.188,-2.065 -0.279,-3.092c-0.053,-0.598 -0.163,-1.191 -0.189,-1.791c-0.032,-0.754 -0.08,-1.494 -0.08,-2.249l0,-0.547c0,-0.025 0.033,-0.15 0.012,-0.171c-0.162,-0.162 -0.517,-0.107 -0.728,-0.134c-0.516,-0.067 -1.008,-0.265 -1.519,-0.367c-0.23,-0.046 -0.454,-0.123 -0.684,-0.167c-0.082,-0.015 -0.167,-0.01 -0.246,-0.03c-0.029,-0.007 -0.132,0.012 -0.095,0.012" style="fill:#fff;stroke:#cd3b44;stroke-width:0.35px;"/><path d="M1.358,4.779c-0.17,0.161 -0.361,-0.066 -0.528,-0.085c-0.106,-0.012 -0.212,0.044 -0.318,0.044c-0.048,-0.001 -0.152,0.028 -0.141,-0.047c0.049,-0.345 0.034,-0.516 0.042,-0.588c0.027,-0.243 0.034,-0.49 0.048,-0.736c0.013,-0.247 -0.003,-0.478 0.004,-0.726c0.001,-0.035 0.007,-0.481 0.04,-0.514c0.024,-0.024 0.368,0.087 0.389,0.09c0.1,0.016 0.202,0.01 0.302,0.024c0.099,0.013 0.35,0.03 0.448,0.063c0.019,0.007 -0.133,0.078 -0.133,0.095c0.001,0.157 0.009,0.314 0.001,0.471c-0.027,0.524 -0.065,1.046 -0.107,1.568c-0.009,0.115 -0.015,0.237 -0.047,0.341" style="fill:#cd3b44;stroke:#cd3b44;stroke-width:0.35px;"/></g></svg>