<?xml version="1.0" encoding="UTF-8" standalone="no"?><!DOCTYPE svg PUBLIC "-//W3C//DTD SVG 1.1//EN" "http://www.w3.org/Graphics/SVG/1.1/DTD/svg11.dtd"><svg width="100%" height="100%" viewBox="0 0 7 18" version="1.1" xmlns="http://www.w3.org/2000/svg" xmlns:xlink="http://www.w3.org/1999/xlink" xml:space="preserve" xmlns:serif="http://www.serif.com/" style="fill-rule:evenodd;clip-rule:evenodd;stroke-linecap:round;stroke-linejoin:round;stroke-miterlimit:1.5;"><rect id="_2-full" serif:id="2-full" x="0.238" y="0.103" width="6.553" height="17.799" style="fill:none;"/><g id="_2-full1" serif:id="2-full"><path d="M4.61,1.357c0.001,-0.006 -0.018,-0.01 -0.021,-0.011c-0.028,-0.006 -0.059,-0.005 -0.087,-0.006c-0.107,-0.002 -0.247,0.026 -0.348,0.065c-0.084,0.032 -0.185,0.093 -0.242,0.165c-0.154,0.194 -0.145,0.466 -0.028,0.664c0.049,0.082 0.109,0.163 0.198,0.202c0.158,0.071 0.367,0.074 0.526,-0.006c0.083,-0.041 0.147,-0.106 0.21,-0.172c0.05,-0.053 0.101,-0.109 0.124,-0.18c0.026,-0.081 0.018,-0.193 0.005,-0.275c-0.024,-0.153 -0.124,-0.299 -0.244,-0.39c-0.029,-0.023 -0.061,-0.036 -0.095,-0.049c-0.012,-0.004 -0.036,0.001 -0.045,-0.007" style="fill:none;stroke:#cd3b44;stroke-width:0.26px;"/><path d="M4.4,1.846c0.01,0.005 0.062,-0.017 0.081,-0.022c0.09,-0.027 0.175,-0.066 0.263,-0.097c0.076,-0.027 0.156,-0.043 0.228,-0.08c0.067,-0.035 0.127,-0.08 0.184,-0.128c0.063,-0.052 0.134,-0.095 0.193,-0.151c0.161,-0.156 0.319,-0.463 0.131,-0.649" style="fill:none;stroke:#cd3b44;stroke-width:0.26px;"/><path d="M5.213,0.605c0.001,-0.006 0.043,0.012 0.064,0.018c0.048,0.013 0.096,0.027 0.144,0.042c0.081,0.026 0.173,0.053 0.258,0.061c0.02,0.002 0.079,-0.002 0.091,0.009" style="fill:none;stroke:#cd3b44;stroke-width:0.26px;"/><path d="M5.369,1.454c0.064,0.079 0.152,0.146 0.225,0.217c0.089,0.088 0.168,0.185 0.257,0.272c0.045,0.045 0.088,0.088 0.139,0.125c0.011,0.008 0.028,0.035 0.041,0.037c0.028,0.003 0.061,-0.019 0.088,-0.025c0.081,-0.019 0.16,-0.055 0.238,-0.072" style="fill:none;stroke:#cd3b44;stroke-width:0.26px;"/><path d="M6.25,1.797c0.007,-0.003 0.072,0.062 0.077,0.066c0.069,0.061 0.151,0.125 0.215,0.187" style="fill:none;stroke:#cd3b44;stroke-width:0.26px;"/><path d="M5.996,2.185c-0.026,0.045 -0.023,0.11 -0.033,0.159c-0.018,0.088 -0.05,0.176 -0.076,0.262c-0.043,0.144 -0.113,0.283 -0.159,0.426c-0.013,0.043 -0.049,0.089 -0.049,0.135" style="fill:none;stroke:#cd3b44;stroke-width:0.26px;"/><path d="M5.893,2.595c0,-0.005 -0.02,-0.01 -0.023,-0.011c-0.029,-0.007 -0.06,-0.011 -0.09,-0.016c-0.134,-0.021 -0.251,-0.012 -0.382,0.032c-0.193,0.064 -0.366,0.289 -0.364,0.492c0.001,0.085 0.041,0.164 0.081,0.236c0.063,0.113 0.128,0.215 0.246,0.277c0.059,0.03 0.119,0.035 0.185,0.037c0.178,0.007 0.33,-0.053 0.46,-0.178c0.037,-0.035 0.076,-0.064 0.099,-0.11c0.111,-0.221 0.076,-0.537 -0.118,-0.692c-0.044,-0.035 -0.087,-0.072 -0.144,-0.087" style="fill:none;stroke:#cd3b44;stroke-width:0.26px;"/><path d="M1.539,2.612c0.016,-0.035 0.036,-0.109 0.036,-0.109l0,0.684c0,0.448 0.007,0.897 -0.008,1.344c-0.044,1.338 -0.127,2.664 -0.233,3.998c-0.176,2.228 -0.131,4.418 -0.096,6.65c0.009,0.538 -0.053,1.075 -0.09,1.611c-0.005,0.074 -0.088,0.464 -0.04,0.511c0.041,0.042 0.237,-0.017 0.283,-0.024c0.27,-0.042 0.547,-0.104 0.822,-0.086c0.805,0.052 1.604,0.078 2.407,0.044c0.315,-0.013 0.641,0.009 0.947,-0.076c0.013,-0.004 0.215,-0.08 0.217,-0.082c0.027,-0.042 -0.03,-0.16 -0.038,-0.201c-0.038,-0.181 -0.044,-0.373 -0.057,-0.558c-0.05,-0.78 -0.035,-1.523 -0.004,-2.304c0.048,-1.163 -0.101,-2.297 -0.252,-3.445c-0.135,-1.02 -0.189,-2.065 -0.279,-3.091c-0.053,-0.598 -0.163,-1.191 -0.189,-1.791c-0.032,-0.755 -0.08,-1.494 -0.08,-2.249l0,-0.548c0,-0.024 0.033,-0.149 0.012,-0.17c-0.162,-0.163 -0.518,-0.107 -0.728,-0.135c-0.516,-0.066 -1.008,-0.265 -1.519,-0.367c-0.23,-0.046 -0.454,-0.122 -0.684,-0.166c-0.082,-0.016 -0.167,-0.01 -0.246,-0.03c-0.029,-0.007 -0.132,0.012 -0.095,0.012" style="fill:#fff;stroke:#cd3b44;stroke-width:0.35px;"/><path d="M1.409,4.695c-0.171,0.17 -0.361,-0.069 -0.528,-0.09c-0.106,-0.012 -0.212,0.047 -0.318,0.046c-0.048,-0 -0.152,0.03 -0.141,-0.049c0.049,-0.364 0.034,-0.545 0.042,-0.621c0.027,-0.256 0.034,-0.517 0.048,-0.777c0.013,-0.261 -0.003,-0.505 0.004,-0.767c0.001,-0.036 0.007,-0.507 0.04,-0.542c0.024,-0.025 0.368,0.091 0.389,0.095c0.1,0.017 0.201,0.01 0.302,0.025c0.099,0.014 0.35,0.032 0.447,0.067c0.02,0.007 -0.132,0.082 -0.132,0.1c0.001,0.165 0.009,0.332 0.001,0.497c-0.027,0.553 -0.065,1.105 -0.107,1.656c-0.009,0.122 -0.015,0.25 -0.047,0.36" style="fill:#cd3b44;stroke:#cd3b44;stroke-width:0.35px;"/><path d="M2.317,15.074c-0.003,-0.005 -0.021,0.006 -0.024,0.008c-0.026,0.015 -0.048,0.038 -0.07,0.059c-0.083,0.076 -0.168,0.199 -0.216,0.301c-0.04,0.085 -0.071,0.204 -0.06,0.299c0.027,0.255 0.239,0.45 0.476,0.511c0.098,0.025 0.204,0.041 0.302,0.005c0.172,-0.063 0.334,-0.213 0.395,-0.387c0.031,-0.091 0.032,-0.186 0.03,-0.281c-0.002,-0.076 -0.005,-0.154 -0.041,-0.223c-0.041,-0.079 -0.13,-0.157 -0.201,-0.208c-0.134,-0.095 -0.319,-0.13 -0.478,-0.111c-0.039,0.005 -0.074,0.019 -0.109,0.034c-0.012,0.006 -0.026,0.027 -0.039,0.027" style="fill:none;stroke:#cd3b44;stroke-width:0.23px;"/><path d="M2.524,15.59c0.011,-0.005 0.035,-0.058 0.045,-0.076c0.048,-0.086 0.083,-0.176 0.127,-0.264c0.038,-0.076 0.087,-0.145 0.114,-0.226c0.024,-0.074 0.036,-0.151 0.044,-0.228c0.008,-0.084 0.031,-0.168 0.033,-0.252c0.005,-0.233 -0.104,-0.575 -0.386,-0.575" style="fill:none;stroke:#cd3b44;stroke-width:0.23px;"/><path d="M2.212,14.079c-0.003,-0.005 0.042,-0.023 0.062,-0.034c0.047,-0.025 0.094,-0.05 0.142,-0.073c0.08,-0.041 0.171,-0.087 0.242,-0.144c0.016,-0.012 0.058,-0.059 0.074,-0.059" style="fill:none;stroke:#cd3b44;stroke-width:0.23px;"/><path d="M2.967,14.593c0.108,0.012 0.224,-0.003 0.334,-0.003c0.133,-0 0.265,0.014 0.398,0.014c0.067,-0 0.132,-0 0.199,-0.01c0.014,-0.002 0.047,0.006 0.059,-0.003c0.024,-0.018 0.033,-0.058 0.048,-0.082c0.048,-0.073 0.081,-0.157 0.127,-0.226" style="fill:none;stroke:#cd3b44;stroke-width:0.23px;"/><path d="M3.893,14.205c0.003,-0.008 0.1,-0.007 0.107,-0.008c0.098,-0.005 0.209,-0.018 0.304,-0.018" style="fill:none;stroke:#cd3b44;stroke-width:0.23px;"/><path d="M3.991,14.677c0.013,0.051 0.064,0.098 0.093,0.141c0.053,0.078 0.094,0.167 0.139,0.249c0.075,0.138 0.125,0.292 0.198,0.431c0.022,0.041 0.03,0.102 0.064,0.136" style="fill:none;stroke:#cd3b44;stroke-width:0.23px;"/><path d="M4.219,15.054c-0.003,-0.003 -0.023,0.008 -0.026,0.01c-0.027,0.015 -0.053,0.035 -0.08,0.053c-0.118,0.082 -0.199,0.174 -0.266,0.302c-0.099,0.188 -0.062,0.48 0.092,0.629c0.065,0.063 0.154,0.092 0.238,0.116c0.132,0.038 0.259,0.066 0.394,0.025c0.068,-0.02 0.117,-0.061 0.168,-0.107c0.14,-0.125 0.211,-0.28 0.217,-0.467c0.001,-0.052 0.009,-0.102 -0.008,-0.153c-0.081,-0.245 -0.344,-0.453 -0.607,-0.426c-0.06,0.006 -0.12,0.01 -0.175,0.041" style="fill:none;stroke:#cd3b44;stroke-width:0.23px;"/><path d="M2.317,11.601c-0.003,-0.005 -0.021,0.006 -0.024,0.008c-0.026,0.015 -0.048,0.038 -0.07,0.058c-0.083,0.077 -0.168,0.199 -0.216,0.302c-0.04,0.085 -0.071,0.203 -0.06,0.298c0.027,0.256 0.239,0.451 0.476,0.512c0.098,0.025 0.204,0.041 0.302,0.005c0.172,-0.063 0.334,-0.213 0.395,-0.388c0.031,-0.091 0.032,-0.185 0.03,-0.28c-0.002,-0.076 -0.005,-0.154 -0.041,-0.224c-0.041,-0.078 -0.13,-0.156 -0.201,-0.207c-0.134,-0.095 -0.319,-0.13 -0.478,-0.111c-0.039,0.005 -0.074,0.019 -0.109,0.034c-0.012,0.006 -0.026,0.027 -0.039,0.027" style="fill:none;stroke:#cd3b44;stroke-width:0.23px;"/><path d="M2.524,12.116c0.011,-0.004 0.035,-0.057 0.045,-0.075c0.048,-0.086 0.083,-0.177 0.127,-0.264c0.038,-0.076 0.087,-0.145 0.114,-0.226c0.024,-0.074 0.036,-0.151 0.044,-0.228c0.008,-0.084 0.031,-0.168 0.033,-0.252c0.005,-0.233 -0.104,-0.575 -0.386,-0.575" style="fill:none;stroke:#cd3b44;stroke-width:0.23px;"/><path d="M2.212,10.605c-0.003,-0.004 0.042,-0.022 0.062,-0.033c0.047,-0.025 0.094,-0.05 0.142,-0.073c0.08,-0.041 0.171,-0.087 0.242,-0.144c0.016,-0.012 0.058,-0.059 0.074,-0.059" style="fill:none;stroke:#cd3b44;stroke-width:0.23px;"/><path d="M2.967,11.119c0.108,0.013 0.224,-0.003 0.334,-0.003c0.133,0 0.265,0.014 0.398,0.014c0.067,0 0.132,0.001 0.199,-0.009c0.014,-0.002 0.047,0.006 0.059,-0.003c0.024,-0.018 0.033,-0.058 0.048,-0.082c0.048,-0.073 0.081,-0.157 0.127,-0.226" style="fill:none;stroke:#cd3b44;stroke-width:0.23px;"/><path d="M3.893,10.732c0.003,-0.008 0.1,-0.007 0.107,-0.008c0.098,-0.005 0.209,-0.018 0.304,-0.018" style="fill:none;stroke:#cd3b44;stroke-width:0.23px;"/><path d="M3.991,11.204c0.013,0.051 0.064,0.097 0.093,0.141c0.053,0.078 0.094,0.166 0.139,0.249c0.075,0.138 0.125,0.291 0.198,0.431c0.022,0.041 0.03,0.102 0.064,0.136" style="fill:none;stroke:#cd3b44;stroke-width:0.23px;"/><path d="M4.219,11.581c-0.003,-0.003 -0.023,0.008 -0.026,0.009c-0.027,0.016 -0.053,0.036 -0.08,0.054c-0.118,0.082 -0.199,0.174 -0.266,0.302c-0.099,0.188 -0.062,0.48 0.092,0.629c0.065,0.063 0.154,0.092 0.238,0.116c0.132,0.037 0.259,0.065 0.394,0.025c0.068,-0.02 0.117,-0.061 0.168,-0.107c0.14,-0.125 0.211,-0.28 0.217,-0.467c0.001,-0.052 0.009,-0.102 -0.008,-0.153c-0.081,-0.245 -0.344,-0.454 -0.607,-0.426c-0.06,0.006 -0.12,0.01 -0.175,0.04" style="fill:none;stroke:#cd3b44;stroke-width:0.23px;"/><path d="M2.388,8.349c-0.003,-0.005 -0.019,0.005 -0.022,0.007c-0.024,0.014 -0.045,0.036 -0.066,0.055c-0.077,0.071 -0.157,0.186 -0.201,0.281c-0.038,0.08 -0.067,0.19 -0.057,0.279c0.026,0.239 0.223,0.421 0.445,0.478c0.092,0.023 0.191,0.038 0.282,0.005c0.161,-0.059 0.312,-0.199 0.369,-0.362c0.029,-0.085 0.03,-0.174 0.028,-0.263c-0.002,-0.071 -0.005,-0.144 -0.038,-0.208c-0.038,-0.074 -0.122,-0.146 -0.188,-0.194c-0.125,-0.089 -0.298,-0.121 -0.446,-0.103c-0.037,0.004 -0.069,0.017 -0.102,0.032c-0.011,0.004 -0.025,0.024 -0.037,0.024" style="fill:none;stroke:#cd3b44;stroke-width:0.23px;"/><path d="M2.581,8.83c0.011,-0.004 0.033,-0.054 0.042,-0.071c0.045,-0.08 0.078,-0.164 0.119,-0.246c0.035,-0.071 0.081,-0.135 0.106,-0.211c0.023,-0.069 0.034,-0.141 0.041,-0.213c0.008,-0.079 0.029,-0.157 0.031,-0.235c0.005,-0.218 -0.097,-0.538 -0.36,-0.538" style="fill:none;stroke:#cd3b44;stroke-width:0.23px;"/><path d="M2.29,7.419c-0.003,-0.004 0.039,-0.021 0.058,-0.031c0.044,-0.024 0.088,-0.047 0.132,-0.069c0.075,-0.038 0.16,-0.081 0.226,-0.134c0.015,-0.012 0.054,-0.055 0.07,-0.055" style="fill:none;stroke:#cd3b44;stroke-width:0.23px;"/><path d="M2.995,7.899c0.101,0.011 0.21,-0.003 0.312,-0.003c0.124,0 0.247,0.013 0.372,0.013c0.062,0 0.123,0 0.185,-0.009c0.014,-0.001 0.045,0.006 0.056,-0.002c0.022,-0.017 0.03,-0.055 0.045,-0.077c0.044,-0.068 0.075,-0.147 0.118,-0.211" style="fill:none;stroke:#cd3b44;stroke-width:0.23px;"/><path d="M3.86,7.537c0.002,-0.007 0.094,-0.007 0.1,-0.007c0.092,-0.005 0.195,-0.017 0.284,-0.017" style="fill:none;stroke:#cd3b44;stroke-width:0.23px;"/><path d="M3.951,7.977c0.013,0.049 0.06,0.092 0.088,0.133c0.049,0.072 0.087,0.155 0.129,0.232c0.07,0.129 0.117,0.272 0.185,0.402c0.02,0.039 0.028,0.096 0.06,0.128" style="fill:none;stroke:#cd3b44;stroke-width:0.23px;"/><path d="M4.164,8.33c-0.003,-0.003 -0.021,0.007 -0.024,0.009c-0.025,0.014 -0.05,0.033 -0.074,0.05c-0.111,0.076 -0.187,0.163 -0.249,0.282c-0.093,0.175 -0.058,0.449 0.086,0.588c0.06,0.058 0.144,0.085 0.222,0.107c0.123,0.036 0.242,0.062 0.368,0.024c0.063,-0.019 0.109,-0.057 0.157,-0.1c0.131,-0.117 0.197,-0.261 0.202,-0.436c0.002,-0.049 0.009,-0.095 -0.006,-0.143c-0.077,-0.229 -0.322,-0.424 -0.568,-0.398c-0.056,0.006 -0.112,0.01 -0.163,0.038" style="fill:none;stroke:#cd3b44;stroke-width:0.23px;"/><path d="M2.368,5.496c-0.003,-0.005 -0.017,0.005 -0.02,0.006c-0.021,0.013 -0.04,0.033 -0.059,0.051c-0.069,0.065 -0.14,0.17 -0.18,0.258c-0.033,0.074 -0.059,0.175 -0.05,0.256c0.023,0.22 0.199,0.387 0.398,0.439c0.081,0.022 0.17,0.035 0.252,0.005c0.144,-0.054 0.279,-0.183 0.329,-0.333c0.027,-0.078 0.027,-0.159 0.026,-0.241c-0.002,-0.065 -0.004,-0.132 -0.034,-0.191c-0.034,-0.068 -0.109,-0.134 -0.169,-0.178c-0.111,-0.082 -0.265,-0.112 -0.399,-0.095c-0.032,0.004 -0.061,0.016 -0.09,0.029c-0.01,0.004 -0.023,0.023 -0.033,0.023" style="fill:none;stroke:#cd3b44;stroke-width:0.23px;"/><path d="M2.541,5.938c0.009,-0.004 0.029,-0.05 0.037,-0.065c0.04,-0.074 0.07,-0.151 0.107,-0.226c0.031,-0.065 0.072,-0.125 0.094,-0.194c0.021,-0.063 0.031,-0.13 0.037,-0.196c0.008,-0.072 0.026,-0.144 0.028,-0.216c0.004,-0.2 -0.087,-0.494 -0.322,-0.494" style="fill:none;stroke:#cd3b44;stroke-width:0.23px;"/><path d="M2.281,4.642c-0.003,-0.004 0.034,-0.02 0.051,-0.029c0.039,-0.022 0.078,-0.043 0.118,-0.063c0.068,-0.035 0.143,-0.074 0.202,-0.123c0.014,-0.011 0.049,-0.051 0.063,-0.051" style="fill:none;stroke:#cd3b44;stroke-width:0.23px;"/><path d="M2.911,5.083c0.09,0.01 0.187,-0.003 0.278,-0.003c0.112,-0 0.222,0.012 0.333,0.012c0.056,0 0.111,0 0.166,-0.008c0.012,-0.002 0.04,0.005 0.05,-0.002c0.02,-0.016 0.027,-0.05 0.04,-0.071c0.04,-0.062 0.068,-0.135 0.106,-0.194" style="fill:none;stroke:#cd3b44;stroke-width:0.23px;"/><path d="M3.684,4.75c0.002,-0.006 0.084,-0.006 0.09,-0.006c0.082,-0.005 0.174,-0.016 0.254,-0.016" style="fill:none;stroke:#cd3b44;stroke-width:0.23px;"/><path d="M3.766,5.155c0.011,0.044 0.054,0.084 0.078,0.121c0.044,0.067 0.078,0.143 0.116,0.214c0.062,0.118 0.105,0.25 0.165,0.369c0.018,0.036 0.025,0.088 0.053,0.117" style="fill:none;stroke:#cd3b44;stroke-width:0.23px;"/><path d="M3.956,5.479c-0.002,-0.003 -0.019,0.006 -0.021,0.008c-0.023,0.013 -0.045,0.03 -0.067,0.046c-0.099,0.07 -0.166,0.149 -0.222,0.259c-0.083,0.161 -0.052,0.412 0.077,0.54c0.054,0.053 0.128,0.078 0.198,0.099c0.111,0.032 0.216,0.056 0.33,0.021c0.056,-0.017 0.097,-0.052 0.14,-0.092c0.117,-0.107 0.176,-0.24 0.181,-0.401c0.001,-0.044 0.008,-0.087 -0.006,-0.13c-0.068,-0.21 -0.288,-0.39 -0.507,-0.366c-0.051,0.005 -0.101,0.009 -0.147,0.035" style="fill:none;stroke:#cd3b44;stroke-width:0.23px;"/><path d="M2.368,5.496c-0.003,-0.005 -0.017,0.005 -0.02,0.006c-0.021,0.013 -0.04,0.033 -0.059,0.051c-0.069,0.065 -0.14,0.17 -0.18,0.258c-0.033,0.074 -0.059,0.175 -0.05,0.256c0.023,0.22 0.199,0.387 0.398,0.439c0.081,0.022 0.17,0.035 0.252,0.005c0.144,-0.054 0.279,-0.183 0.329,-0.333c0.027,-0.078 0.027,-0.159 0.026,-0.241c-0.002,-0.065 -0.004,-0.132 -0.034,-0.191c-0.034,-0.068 -0.109,-0.134 -0.169,-0.178c-0.111,-0.082 -0.265,-0.112 -0.399,-0.095c-0.032,0.004 -0.061,0.016 -0.09,0.029c-0.01,0.004 -0.023,0.023 -0.033,0.023" style="fill:none;stroke:#cd3b44;stroke-width:0.23px;"/><path d="M2.541,5.938c0.009,-0.004 0.029,-0.05 0.037,-0.065c0.04,-0.074 0.07,-0.151 0.107,-0.226c0.031,-0.065 0.072,-0.125 0.094,-0.194c0.021,-0.063 0.031,-0.13 0.037,-0.196c0.008,-0.072 0.026,-0.144 0.028,-0.216c0.004,-0.2 -0.087,-0.494 -0.322,-0.494" style="fill:none;stroke:#cd3b44;stroke-width:0.23px;"/><path d="M2.281,4.642c-0.003,-0.004 0.034,-0.02 0.051,-0.029c0.039,-0.022 0.078,-0.043 0.118,-0.063c0.068,-0.035 0.143,-0.074 0.202,-0.123c0.014,-0.011 0.049,-0.051 0.063,-0.051" style="fill:none;stroke:#cd3b44;stroke-width:0.23px;"/><path d="M2.911,5.083c0.09,0.01 0.187,-0.003 0.278,-0.003c0.112,-0 0.222,0.012 0.333,0.012c0.056,0 0.111,0 0.166,-0.008c0.012,-0.002 0.04,0.005 0.05,-0.002c0.02,-0.016 0.027,-0.05 0.04,-0.071c0.04,-0.062 0.068,-0.135 0.106,-0.194" style="fill:none;stroke:#cd3b44;stroke-width:0.23px;"/><path d="M3.684,4.75c0.002,-0.006 0.084,-0.006 0.09,-0.006c0.082,-0.005 0.174,-0.016 0.254,-0.016" style="fill:none;stroke:#cd3b44;stroke-width:0.23px;"/><path d="M3.766,5.155c0.011,0.044 0.054,0.084 0.078,0.121c0.044,0.067 0.078,0.143 0.116,0.214c0.062,0.118 0.105,0.25 0.165,0.369c0.018,0.036 0.025,0.088 0.053,0.117" style="fill:none;stroke:#cd3b44;stroke-width:0.23px;"/><path d="M3.956,5.479c-0.002,-0.003 -0.019,0.006 -0.021,0.008c-0.023,0.013 -0.045,0.03 -0.067,0.046c-0.099,0.07 -0.166,0.149 -0.222,0.259c-0.083,0.161 -0.052,0.412 0.077,0.54c0.054,0.053 0.128,0.078 0.198,0.099c0.111,0.032 0.216,0.056 0.33,0.021c0.056,-0.017 0.097,-0.052 0.14,-0.092c0.117,-0.107 0.176,-0.24 0.181,-0.401c0.001,-0.044 0.008,-0.087 -0.006,-0.13c-0.068,-0.21 -0.288,-0.39 -0.507,-0.366c-0.051,0.005 -0.101,0.009 -0.147,0.035" style="fill:none;stroke:#cd3b44;stroke-width:0.23px;"/></g></svg>