<?xml version="1.0" encoding="UTF-8" standalone="no"?><!DOCTYPE svg PUBLIC "-//W3C//DTD SVG 1.1//EN" "http://www.w3.org/Graphics/SVG/1.1/DTD/svg11.dtd"><svg width="100%" height="100%" viewBox="0 0 7 18" version="1.1" xmlns="http://www.w3.org/2000/svg" xmlns:xlink="http://www.w3.org/1999/xlink" xml:space="preserve" xmlns:serif="http://www.serif.com/" style="fill-rule:evenodd;clip-rule:evenodd;stroke-linecap:round;stroke-linejoin:round;stroke-miterlimit:1.5;"><rect id="_2-high" serif:id="2-high" x="0.03" y="0.066" width="6.553" height="17.883" style="fill:none;"/><g id="_2-high1" serif:id="2-high"><path d="M1.457,4.684c-0.171,0.17 -0.361,-0.069 -0.528,-0.09c-0.106,-0.012 -0.212,0.047 -0.318,0.046c-0.048,-0 -0.152,0.03 -0.142,-0.049c0.05,-0.364 0.035,-0.545 0.043,-0.621c0.027,-0.256 0.034,-0.517 0.047,-0.777c0.014,-0.261 -0.002,-0.505 0.005,-0.767c0.001,-0.036 0.007,-0.507 0.04,-0.542c0.024,-0.025 0.368,0.091 0.389,0.095c0.1,0.017 0.201,0.01 0.301,0.025c0.1,0.014 0.351,0.032 0.448,0.067c0.02,0.007 -0.132,0.082 -0.132,0.1c0.001,0.165 0.009,0.332 0.001,0.497c-0.028,0.553 -0.065,1.105 -0.107,1.656c-0.01,0.122 -0.015,0.25 -0.047,0.36" style="fill:#de5126;stroke:#de5126;stroke-width:0.35px;"/><path d="M1.587,2.601c0.016,-0.035 0.036,-0.109 0.036,-0.109l0,0.684c0,0.448 0.007,0.897 -0.008,1.344c-0.044,1.338 -0.127,2.664 -0.233,3.998c-0.177,2.228 -0.131,4.418 -0.096,6.65c0.008,0.538 -0.053,1.075 -0.09,1.611c-0.005,0.074 -0.088,0.464 -0.04,0.511c0.041,0.042 0.237,-0.016 0.282,-0.024c0.271,-0.042 0.548,-0.104 0.823,-0.086c0.805,0.053 1.604,0.078 2.407,0.044c0.315,-0.013 0.641,0.009 0.947,-0.076c0.013,-0.004 0.215,-0.08 0.217,-0.082c0.027,-0.042 -0.03,-0.16 -0.039,-0.201c-0.037,-0.181 -0.044,-0.373 -0.056,-0.558c-0.051,-0.78 -0.035,-1.523 -0.004,-2.304c0.047,-1.163 -0.101,-2.297 -0.252,-3.445c-0.135,-1.02 -0.189,-2.065 -0.279,-3.091c-0.053,-0.598 -0.163,-1.191 -0.189,-1.791c-0.032,-0.755 -0.08,-1.494 -0.08,-2.249l-0,-0.548c-0,-0.024 0.033,-0.149 0.012,-0.17c-0.162,-0.163 -0.518,-0.107 -0.728,-0.135c-0.516,-0.066 -1.008,-0.264 -1.519,-0.367c-0.23,-0.046 -0.454,-0.122 -0.684,-0.166c-0.082,-0.016 -0.167,-0.01 -0.247,-0.03c-0.028,-0.007 -0.131,0.012 -0.094,0.012" style="fill:#fff;stroke:#de5126;stroke-width:0.35px;"/><path d="M2.365,15.063c-0.003,-0.005 -0.021,0.006 -0.024,0.008c-0.026,0.015 -0.048,0.038 -0.07,0.059c-0.083,0.076 -0.168,0.199 -0.216,0.301c-0.04,0.085 -0.071,0.204 -0.061,0.299c0.028,0.255 0.24,0.45 0.477,0.511c0.098,0.025 0.204,0.041 0.302,0.005c0.172,-0.063 0.334,-0.213 0.395,-0.387c0.031,-0.091 0.032,-0.186 0.03,-0.281c-0.002,-0.076 -0.005,-0.154 -0.041,-0.223c-0.041,-0.079 -0.13,-0.157 -0.201,-0.207c-0.134,-0.096 -0.319,-0.131 -0.478,-0.112c-0.039,0.005 -0.074,0.019 -0.109,0.035c-0.012,0.005 -0.027,0.026 -0.039,0.026" style="fill:none;stroke:#de5126;stroke-width:0.23px;"/><path d="M2.572,15.579c0.011,-0.005 0.034,-0.058 0.044,-0.076c0.049,-0.086 0.084,-0.176 0.128,-0.264c0.038,-0.075 0.086,-0.145 0.113,-0.226c0.025,-0.074 0.037,-0.151 0.045,-0.228c0.008,-0.084 0.03,-0.168 0.032,-0.252c0.006,-0.233 -0.103,-0.575 -0.385,-0.575" style="fill:none;stroke:#de5126;stroke-width:0.23px;"/><path d="M2.26,14.068c-0.003,-0.005 0.042,-0.023 0.062,-0.034c0.047,-0.025 0.094,-0.049 0.141,-0.073c0.081,-0.041 0.171,-0.087 0.242,-0.144c0.016,-0.012 0.059,-0.059 0.075,-0.059" style="fill:none;stroke:#de5126;stroke-width:0.23px;"/><path d="M3.015,14.582c0.108,0.012 0.224,-0.003 0.333,-0.003c0.134,-0 0.266,0.014 0.399,0.014c0.067,-0 0.132,-0 0.199,-0.01c0.014,-0.002 0.047,0.006 0.059,-0.003c0.024,-0.018 0.032,-0.058 0.048,-0.082c0.047,-0.073 0.081,-0.157 0.127,-0.226" style="fill:none;stroke:#de5126;stroke-width:0.23px;"/><path d="M3.941,14.194c0.002,-0.008 0.1,-0.007 0.107,-0.008c0.098,-0.005 0.209,-0.018 0.304,-0.018" style="fill:none;stroke:#de5126;stroke-width:0.23px;"/><path d="M4.039,14.666c0.013,0.051 0.064,0.098 0.093,0.141c0.053,0.078 0.094,0.167 0.139,0.249c0.075,0.138 0.125,0.292 0.198,0.431c0.022,0.041 0.029,0.102 0.064,0.136" style="fill:none;stroke:#de5126;stroke-width:0.23px;"/><path d="M4.267,15.043c-0.004,-0.003 -0.023,0.008 -0.026,0.01c-0.027,0.015 -0.054,0.035 -0.08,0.053c-0.118,0.082 -0.199,0.174 -0.266,0.302c-0.099,0.188 -0.062,0.48 0.092,0.629c0.064,0.063 0.154,0.092 0.238,0.116c0.132,0.038 0.258,0.066 0.394,0.025c0.067,-0.02 0.117,-0.061 0.168,-0.107c0.14,-0.125 0.211,-0.28 0.216,-0.467c0.002,-0.052 0.01,-0.102 -0.007,-0.153c-0.081,-0.245 -0.344,-0.453 -0.607,-0.426c-0.06,0.006 -0.12,0.01 -0.175,0.041" style="fill:none;stroke:#de5126;stroke-width:0.23px;"/><path d="M2.365,11.59c-0.003,-0.005 -0.021,0.006 -0.024,0.008c-0.026,0.015 -0.048,0.038 -0.07,0.058c-0.083,0.077 -0.168,0.2 -0.216,0.302c-0.04,0.085 -0.071,0.203 -0.061,0.298c0.028,0.256 0.24,0.451 0.477,0.512c0.098,0.025 0.204,0.041 0.302,0.005c0.172,-0.063 0.334,-0.213 0.395,-0.388c0.031,-0.09 0.032,-0.185 0.03,-0.28c-0.002,-0.076 -0.005,-0.154 -0.041,-0.223c-0.041,-0.079 -0.13,-0.157 -0.201,-0.208c-0.134,-0.095 -0.319,-0.13 -0.478,-0.111c-0.039,0.005 -0.074,0.019 -0.109,0.034c-0.012,0.006 -0.027,0.027 -0.039,0.027" style="fill:none;stroke:#de5126;stroke-width:0.23px;"/><path d="M2.572,12.105c0.011,-0.004 0.034,-0.057 0.044,-0.075c0.049,-0.086 0.084,-0.176 0.128,-0.264c0.038,-0.076 0.086,-0.145 0.113,-0.226c0.025,-0.074 0.037,-0.151 0.045,-0.228c0.008,-0.084 0.03,-0.168 0.032,-0.252c0.006,-0.233 -0.103,-0.575 -0.385,-0.575" style="fill:none;stroke:#de5126;stroke-width:0.23px;"/><path d="M2.26,10.594c-0.003,-0.004 0.042,-0.022 0.062,-0.033c0.047,-0.025 0.094,-0.05 0.141,-0.073c0.081,-0.041 0.171,-0.087 0.242,-0.144c0.016,-0.012 0.059,-0.059 0.075,-0.059" style="fill:none;stroke:#de5126;stroke-width:0.23px;"/><path d="M3.015,11.108c0.108,0.013 0.224,-0.003 0.333,-0.003c0.134,0 0.266,0.014 0.399,0.014c0.067,0 0.132,0.001 0.199,-0.009c0.014,-0.002 0.047,0.006 0.059,-0.003c0.024,-0.018 0.032,-0.058 0.048,-0.082c0.047,-0.073 0.081,-0.157 0.127,-0.226" style="fill:none;stroke:#de5126;stroke-width:0.23px;"/><path d="M3.941,10.721c0.002,-0.008 0.1,-0.007 0.107,-0.008c0.098,-0.005 0.209,-0.018 0.304,-0.018" style="fill:none;stroke:#de5126;stroke-width:0.23px;"/><path d="M4.039,11.193c0.013,0.051 0.064,0.097 0.093,0.141c0.053,0.078 0.094,0.166 0.139,0.249c0.075,0.138 0.125,0.292 0.198,0.431c0.022,0.041 0.029,0.102 0.064,0.136" style="fill:none;stroke:#de5126;stroke-width:0.23px;"/><path d="M4.267,11.57c-0.004,-0.003 -0.023,0.008 -0.026,0.009c-0.027,0.016 -0.054,0.036 -0.08,0.054c-0.118,0.082 -0.199,0.174 -0.266,0.302c-0.099,0.188 -0.062,0.48 0.092,0.629c0.064,0.063 0.154,0.092 0.238,0.116c0.132,0.037 0.258,0.066 0.394,0.025c0.067,-0.02 0.117,-0.061 0.168,-0.107c0.14,-0.125 0.211,-0.28 0.216,-0.467c0.002,-0.052 0.01,-0.102 -0.007,-0.153c-0.081,-0.245 -0.344,-0.454 -0.607,-0.426c-0.06,0.006 -0.12,0.01 -0.175,0.041" style="fill:none;stroke:#de5126;stroke-width:0.23px;"/><path d="M2.436,8.338c-0.003,-0.005 -0.019,0.005 -0.022,0.007c-0.024,0.014 -0.046,0.036 -0.066,0.055c-0.077,0.071 -0.157,0.186 -0.201,0.281c-0.038,0.08 -0.067,0.19 -0.057,0.279c0.026,0.239 0.223,0.421 0.445,0.478c0.091,0.023 0.191,0.038 0.282,0.005c0.161,-0.059 0.312,-0.199 0.369,-0.362c0.029,-0.085 0.03,-0.174 0.028,-0.263c-0.002,-0.071 -0.005,-0.143 -0.038,-0.208c-0.038,-0.074 -0.122,-0.146 -0.188,-0.193c-0.125,-0.09 -0.298,-0.122 -0.447,-0.104c-0.036,0.004 -0.068,0.017 -0.101,0.032c-0.011,0.004 -0.025,0.024 -0.037,0.024" style="fill:none;stroke:#de5126;stroke-width:0.23px;"/><path d="M2.629,8.819c0.011,-0.004 0.032,-0.054 0.042,-0.071c0.045,-0.08 0.078,-0.164 0.119,-0.246c0.035,-0.071 0.081,-0.135 0.106,-0.211c0.023,-0.069 0.034,-0.141 0.041,-0.213c0.008,-0.078 0.029,-0.157 0.031,-0.235c0.005,-0.218 -0.097,-0.538 -0.36,-0.538" style="fill:none;stroke:#de5126;stroke-width:0.23px;"/><path d="M2.338,7.408c-0.003,-0.004 0.039,-0.021 0.058,-0.031c0.044,-0.024 0.087,-0.047 0.132,-0.069c0.075,-0.038 0.16,-0.081 0.226,-0.134c0.015,-0.012 0.054,-0.055 0.07,-0.055" style="fill:none;stroke:#de5126;stroke-width:0.23px;"/><path d="M3.043,7.888c0.101,0.011 0.209,-0.003 0.311,-0.003c0.125,0 0.248,0.013 0.373,0.013c0.062,0 0.123,0 0.185,-0.008c0.014,-0.002 0.045,0.005 0.055,-0.003c0.023,-0.017 0.031,-0.055 0.046,-0.077c0.044,-0.068 0.075,-0.147 0.118,-0.211" style="fill:none;stroke:#de5126;stroke-width:0.23px;"/><path d="M3.908,7.526c0.002,-0.007 0.093,-0.007 0.1,-0.007c0.092,-0.005 0.195,-0.017 0.284,-0.017" style="fill:none;stroke:#de5126;stroke-width:0.23px;"/><path d="M3.999,7.967c0.012,0.048 0.06,0.091 0.087,0.132c0.049,0.072 0.088,0.155 0.13,0.232c0.07,0.129 0.117,0.272 0.185,0.402c0.02,0.039 0.027,0.096 0.059,0.128" style="fill:none;stroke:#de5126;stroke-width:0.23px;"/><path d="M4.212,8.319c-0.003,-0.003 -0.021,0.007 -0.024,0.009c-0.026,0.015 -0.05,0.033 -0.074,0.05c-0.111,0.076 -0.187,0.163 -0.25,0.282c-0.092,0.175 -0.057,0.449 0.087,0.588c0.06,0.058 0.143,0.085 0.222,0.107c0.123,0.036 0.241,0.062 0.368,0.024c0.063,-0.019 0.109,-0.057 0.157,-0.1c0.131,-0.117 0.197,-0.261 0.202,-0.436c0.002,-0.049 0.009,-0.095 -0.007,-0.143c-0.076,-0.229 -0.321,-0.424 -0.567,-0.398c-0.056,0.006 -0.112,0.01 -0.163,0.038" style="fill:none;stroke:#de5126;stroke-width:0.23px;"/><path d="M2.409,5.458c-0.003,-0.004 -0.018,0.005 -0.021,0.006c-0.022,0.013 -0.042,0.032 -0.06,0.049c-0.071,0.062 -0.144,0.163 -0.185,0.247c-0.034,0.07 -0.061,0.167 -0.052,0.245c0.024,0.21 0.205,0.37 0.408,0.42c0.084,0.02 0.175,0.033 0.259,0.004c0.147,-0.052 0.286,-0.175 0.338,-0.318c0.027,-0.075 0.028,-0.153 0.026,-0.231c-0.002,-0.062 -0.005,-0.126 -0.035,-0.183c-0.035,-0.064 -0.112,-0.128 -0.173,-0.17c-0.114,-0.078 -0.272,-0.107 -0.409,-0.091c-0.033,0.004 -0.063,0.015 -0.093,0.028c-0.01,0.004 -0.023,0.022 -0.034,0.022" style="fill:none;stroke:#de5126;stroke-width:0.21px;"/><path d="M2.586,5.881c0.009,-0.003 0.029,-0.047 0.038,-0.062c0.041,-0.07 0.071,-0.145 0.109,-0.217c0.032,-0.062 0.074,-0.119 0.097,-0.185c0.021,-0.061 0.031,-0.124 0.038,-0.187c0.007,-0.069 0.026,-0.138 0.028,-0.207c0.005,-0.191 -0.089,-0.472 -0.33,-0.472" style="fill:none;stroke:#de5126;stroke-width:0.21px;"/><path d="M2.319,4.641c-0.003,-0.004 0.035,-0.019 0.053,-0.027c0.04,-0.021 0.08,-0.041 0.121,-0.061c0.069,-0.033 0.146,-0.071 0.207,-0.117c0.014,-0.011 0.05,-0.049 0.064,-0.049" style="fill:none;stroke:#de5126;stroke-width:0.21px;"/><path d="M2.965,5.063c0.093,0.01 0.192,-0.003 0.286,-0.003c0.114,0 0.227,0.012 0.341,0.012c0.058,-0 0.113,-0 0.17,-0.008c0.013,-0.002 0.041,0.005 0.051,-0.002c0.02,-0.015 0.028,-0.048 0.041,-0.068c0.041,-0.06 0.07,-0.129 0.109,-0.186" style="fill:none;stroke:#de5126;stroke-width:0.21px;"/><path d="M3.758,4.744c0.002,-0.006 0.086,-0.005 0.092,-0.006c0.084,-0.004 0.179,-0.015 0.26,-0.015" style="fill:none;stroke:#de5126;stroke-width:0.21px;"/><path d="M3.842,5.132c0.011,0.042 0.055,0.08 0.08,0.116c0.045,0.064 0.08,0.136 0.119,0.204c0.064,0.114 0.107,0.24 0.169,0.354c0.019,0.034 0.026,0.084 0.055,0.112" style="fill:none;stroke:#de5126;stroke-width:0.21px;"/><path d="M4.037,5.442c-0.003,-0.003 -0.019,0.006 -0.022,0.007c-0.023,0.013 -0.046,0.029 -0.068,0.044c-0.102,0.068 -0.171,0.143 -0.229,0.248c-0.084,0.154 -0.053,0.394 0.08,0.517c0.055,0.051 0.131,0.075 0.203,0.095c0.113,0.03 0.222,0.053 0.338,0.02c0.058,-0.017 0.1,-0.05 0.144,-0.088c0.12,-0.102 0.18,-0.229 0.185,-0.383c0.002,-0.043 0.009,-0.084 -0.006,-0.125c-0.07,-0.201 -0.295,-0.373 -0.52,-0.351c-0.052,0.006 -0.103,0.009 -0.15,0.034" style="fill:none;stroke:#de5126;stroke-width:0.21px;"/></g></svg>