<?xml version="1.0" encoding="UTF-8" standalone="no"?><!DOCTYPE svg PUBLIC "-//W3C//DTD SVG 1.1//EN" "http://www.w3.org/Graphics/SVG/1.1/DTD/svg11.dtd"><svg width="100%" height="100%" viewBox="0 0 7 18" version="1.1" xmlns="http://www.w3.org/2000/svg" xmlns:xlink="http://www.w3.org/1999/xlink" xml:space="preserve" xmlns:serif="http://www.serif.com/" style="fill-rule:evenodd;clip-rule:evenodd;stroke-linecap:round;stroke-linejoin:round;stroke-miterlimit:1.5;"><rect id="_2-low" serif:id="2-low" x="0.062" y="0.016" width="6.553" height="17.797" style="fill:none;"/><g id="_2-low1" serif:id="2-low"><path d="M1.598,4.668c-0.171,0.161 -0.361,-0.066 -0.528,-0.085c-0.106,-0.012 -0.212,0.044 -0.318,0.043c-0.048,-0 -0.152,0.028 -0.142,-0.047c0.05,-0.344 0.035,-0.516 0.043,-0.587c0.026,-0.243 0.034,-0.491 0.047,-0.736c0.014,-0.247 -0.002,-0.479 0.005,-0.727c0.001,-0.034 0.007,-0.48 0.04,-0.513c0.024,-0.024 0.368,0.086 0.389,0.09c0.1,0.016 0.201,0.009 0.301,0.023c0.1,0.014 0.351,0.031 0.448,0.064c0.02,0.006 -0.132,0.077 -0.132,0.094c0.001,0.157 0.009,0.315 0.001,0.471c-0.028,0.524 -0.065,1.047 -0.107,1.569c-0.01,0.115 -0.015,0.237 -0.047,0.341" style="fill:#de5126;stroke:#de5126;stroke-width:0.35px;"/><path d="M1.728,2.733c0.016,-0.035 0.036,-0.109 0.036,-0.109l-0,0.684c-0,0.448 0.007,0.897 -0.008,1.344c-0.044,1.338 -0.127,2.664 -0.233,3.998c-0.177,2.228 -0.131,4.418 -0.096,6.65c0.008,0.538 -0.053,1.075 -0.09,1.611c-0.005,0.074 -0.088,0.464 -0.04,0.511c0.041,0.042 0.237,-0.016 0.282,-0.024c0.271,-0.042 0.548,-0.104 0.823,-0.086c0.805,0.053 1.604,0.078 2.407,0.044c0.315,-0.013 0.641,0.009 0.947,-0.076c0.013,-0.004 0.215,-0.08 0.217,-0.082c0.027,-0.042 -0.03,-0.16 -0.039,-0.201c-0.037,-0.181 -0.044,-0.373 -0.056,-0.558c-0.051,-0.78 -0.035,-1.523 -0.004,-2.304c0.047,-1.163 -0.101,-2.297 -0.253,-3.445c-0.134,-1.02 -0.188,-2.065 -0.278,-3.091c-0.053,-0.598 -0.163,-1.191 -0.189,-1.791c-0.032,-0.755 -0.08,-1.494 -0.08,-2.249l-0,-0.548c-0,-0.024 0.033,-0.149 0.012,-0.17c-0.163,-0.163 -0.518,-0.107 -0.728,-0.135c-0.516,-0.066 -1.008,-0.265 -1.519,-0.367c-0.23,-0.046 -0.454,-0.122 -0.684,-0.166c-0.082,-0.016 -0.167,-0.01 -0.247,-0.03c-0.029,-0.007 -0.131,0.012 -0.094,0.012" style="fill:#fff;stroke:#de5126;stroke-width:0.35px;"/><path d="M2.506,15.195c-0.003,-0.005 -0.021,0.006 -0.024,0.008c-0.026,0.015 -0.048,0.038 -0.07,0.059c-0.083,0.076 -0.168,0.199 -0.216,0.301c-0.04,0.085 -0.071,0.204 -0.061,0.299c0.028,0.255 0.239,0.45 0.477,0.511c0.098,0.025 0.204,0.041 0.302,0.005c0.172,-0.063 0.334,-0.213 0.395,-0.387c0.031,-0.091 0.032,-0.186 0.03,-0.281c-0.002,-0.076 -0.005,-0.154 -0.041,-0.223c-0.041,-0.079 -0.13,-0.157 -0.201,-0.207c-0.134,-0.096 -0.319,-0.131 -0.478,-0.112c-0.039,0.005 -0.074,0.019 -0.109,0.034c-0.012,0.006 -0.027,0.027 -0.039,0.027" style="fill:none;stroke:#de5126;stroke-width:0.23px;"/><path d="M2.713,15.711c0.011,-0.005 0.034,-0.058 0.044,-0.076c0.049,-0.086 0.084,-0.176 0.128,-0.264c0.038,-0.075 0.086,-0.145 0.113,-0.226c0.025,-0.074 0.037,-0.151 0.045,-0.228c0.008,-0.084 0.03,-0.168 0.032,-0.252c0.006,-0.233 -0.103,-0.575 -0.385,-0.575" style="fill:none;stroke:#de5126;stroke-width:0.23px;"/><path d="M2.401,14.2c-0.003,-0.005 0.042,-0.023 0.062,-0.034c0.047,-0.025 0.094,-0.049 0.141,-0.073c0.081,-0.041 0.171,-0.087 0.242,-0.144c0.016,-0.012 0.058,-0.059 0.075,-0.059" style="fill:none;stroke:#de5126;stroke-width:0.23px;"/><path d="M3.155,14.714c0.109,0.012 0.225,-0.003 0.334,-0.003c0.134,-0 0.266,0.014 0.399,0.014c0.067,-0 0.132,-0 0.199,-0.01c0.014,-0.002 0.047,0.006 0.059,-0.003c0.024,-0.018 0.032,-0.058 0.048,-0.082c0.047,-0.073 0.081,-0.157 0.127,-0.226" style="fill:none;stroke:#de5126;stroke-width:0.23px;"/><path d="M4.082,14.326c0.002,-0.008 0.1,-0.007 0.107,-0.008c0.098,-0.005 0.209,-0.018 0.304,-0.018" style="fill:none;stroke:#de5126;stroke-width:0.23px;"/><path d="M4.18,14.798c0.013,0.051 0.064,0.098 0.093,0.141c0.053,0.078 0.094,0.167 0.139,0.249c0.075,0.138 0.125,0.292 0.198,0.431c0.021,0.041 0.029,0.102 0.064,0.136" style="fill:none;stroke:#de5126;stroke-width:0.23px;"/><path d="M4.408,15.175c-0.004,-0.003 -0.023,0.008 -0.026,0.01c-0.028,0.015 -0.054,0.035 -0.08,0.053c-0.118,0.082 -0.199,0.174 -0.267,0.302c-0.098,0.188 -0.061,0.48 0.093,0.629c0.064,0.063 0.154,0.092 0.238,0.116c0.132,0.038 0.258,0.066 0.394,0.025c0.067,-0.02 0.117,-0.061 0.168,-0.107c0.14,-0.125 0.211,-0.28 0.216,-0.467c0.002,-0.052 0.01,-0.102 -0.007,-0.153c-0.081,-0.245 -0.344,-0.453 -0.607,-0.426c-0.061,0.006 -0.121,0.01 -0.175,0.041" style="fill:none;stroke:#de5126;stroke-width:0.23px;"/></g></svg>