<?xml version="1.0" encoding="UTF-8" standalone="no"?><!DOCTYPE svg PUBLIC "-//W3C//DTD SVG 1.1//EN" "http://www.w3.org/Graphics/SVG/1.1/DTD/svg11.dtd"><svg width="100%" height="100%" viewBox="0 0 7 18" version="1.1" xmlns="http://www.w3.org/2000/svg" xmlns:xlink="http://www.w3.org/1999/xlink" xml:space="preserve" xmlns:serif="http://www.serif.com/" style="fill-rule:evenodd;clip-rule:evenodd;stroke-linecap:round;stroke-linejoin:round;stroke-miterlimit:1.5;"><rect id="_2-normal" serif:id="2-normal" x="0.213" y="0.13" width="6.553" height="17.832" style="fill:none;"/><g id="_2-normal1" serif:id="2-normal"><path d="M2.372,8.658c-0.003,-0.005 -0.019,0.005 -0.022,0.007c-0.024,0.014 -0.045,0.036 -0.066,0.055c-0.077,0.071 -0.157,0.186 -0.201,0.281c-0.038,0.08 -0.067,0.19 -0.057,0.279c0.026,0.239 0.223,0.421 0.445,0.478c0.092,0.023 0.191,0.038 0.282,0.005c0.161,-0.059 0.312,-0.199 0.369,-0.362c0.029,-0.085 0.03,-0.174 0.028,-0.263c-0.002,-0.071 -0.005,-0.144 -0.038,-0.208c-0.038,-0.074 -0.122,-0.146 -0.188,-0.193c-0.125,-0.09 -0.298,-0.122 -0.446,-0.104c-0.037,0.004 -0.069,0.017 -0.102,0.032c-0.011,0.004 -0.025,0.024 -0.037,0.024" style="fill:none;stroke:#287121;stroke-width:0.23px;"/><path d="M2.565,9.139c0.011,-0.004 0.033,-0.054 0.042,-0.071c0.045,-0.08 0.078,-0.164 0.119,-0.246c0.035,-0.071 0.081,-0.135 0.106,-0.211c0.023,-0.069 0.034,-0.141 0.041,-0.213c0.008,-0.079 0.029,-0.157 0.031,-0.235c0.005,-0.218 -0.097,-0.538 -0.36,-0.538" style="fill:none;stroke:#287121;stroke-width:0.23px;"/><path d="M2.274,7.728c-0.003,-0.004 0.039,-0.021 0.058,-0.031c0.044,-0.024 0.088,-0.047 0.132,-0.069c0.075,-0.038 0.16,-0.081 0.226,-0.134c0.015,-0.012 0.054,-0.055 0.07,-0.055" style="fill:none;stroke:#287121;stroke-width:0.23px;"/><path d="M2.979,8.208c0.101,0.011 0.21,-0.003 0.312,-0.003c0.124,0 0.247,0.013 0.372,0.013c0.063,0 0.123,0 0.185,-0.009c0.014,-0.001 0.045,0.006 0.056,-0.002c0.022,-0.017 0.03,-0.055 0.045,-0.077c0.044,-0.068 0.075,-0.147 0.118,-0.211" style="fill:none;stroke:#287121;stroke-width:0.23px;"/><path d="M3.844,7.846c0.002,-0.007 0.094,-0.007 0.1,-0.007c0.092,-0.005 0.195,-0.017 0.284,-0.017" style="fill:none;stroke:#287121;stroke-width:0.23px;"/><path d="M3.935,8.286c0.013,0.049 0.06,0.092 0.088,0.133c0.049,0.072 0.087,0.155 0.129,0.232c0.07,0.129 0.117,0.272 0.185,0.402c0.02,0.039 0.028,0.096 0.06,0.128" style="fill:none;stroke:#287121;stroke-width:0.23px;"/><path d="M4.148,8.639c-0.003,-0.003 -0.021,0.007 -0.024,0.009c-0.025,0.014 -0.05,0.033 -0.074,0.05c-0.111,0.076 -0.187,0.163 -0.249,0.282c-0.093,0.175 -0.058,0.449 0.086,0.588c0.06,0.058 0.144,0.085 0.222,0.107c0.123,0.036 0.242,0.062 0.368,0.024c0.063,-0.019 0.109,-0.057 0.157,-0.1c0.131,-0.117 0.197,-0.261 0.202,-0.436c0.002,-0.049 0.009,-0.095 -0.006,-0.143c-0.077,-0.229 -0.322,-0.424 -0.568,-0.398c-0.056,0.006 -0.112,0.01 -0.163,0.038" style="fill:none;stroke:#287121;stroke-width:0.23px;"/><path d="M1.523,2.921c0.016,-0.035 0.036,-0.109 0.036,-0.109l0,0.684c0,0.448 0.007,0.897 -0.008,1.344c-0.044,1.338 -0.127,2.664 -0.232,3.998c-0.177,2.228 -0.132,4.418 -0.097,6.65c0.009,0.538 -0.053,1.075 -0.09,1.611c-0.005,0.074 -0.088,0.464 -0.04,0.511c0.041,0.042 0.237,-0.016 0.283,-0.024c0.27,-0.042 0.547,-0.104 0.822,-0.086c0.805,0.053 1.604,0.078 2.407,0.044c0.315,-0.013 0.641,0.009 0.947,-0.076c0.013,-0.004 0.215,-0.08 0.217,-0.082c0.028,-0.042 -0.03,-0.16 -0.038,-0.201c-0.038,-0.181 -0.044,-0.373 -0.056,-0.558c-0.051,-0.78 -0.036,-1.523 -0.005,-2.304c0.048,-1.163 -0.101,-2.297 -0.252,-3.445c-0.135,-1.02 -0.189,-2.065 -0.279,-3.091c-0.053,-0.598 -0.163,-1.191 -0.189,-1.791c-0.032,-0.755 -0.08,-1.494 -0.08,-2.249l0,-0.548c0,-0.024 0.033,-0.149 0.012,-0.17c-0.162,-0.163 -0.517,-0.107 -0.728,-0.135c-0.516,-0.066 -1.008,-0.265 -1.519,-0.367c-0.23,-0.046 -0.454,-0.122 -0.684,-0.166c-0.082,-0.016 -0.167,-0.01 -0.246,-0.03c-0.029,-0.007 -0.132,0.012 -0.095,0.012" style="fill:#fff;stroke:#287121;stroke-width:0.35px;"/><path d="M2.372,8.658c-0.003,-0.005 -0.019,0.005 -0.022,0.007c-0.024,0.014 -0.045,0.036 -0.066,0.055c-0.077,0.071 -0.157,0.186 -0.201,0.281c-0.038,0.08 -0.067,0.19 -0.057,0.279c0.026,0.239 0.223,0.421 0.445,0.478c0.092,0.023 0.191,0.038 0.282,0.005c0.161,-0.059 0.312,-0.199 0.369,-0.362c0.029,-0.085 0.03,-0.174 0.028,-0.263c-0.002,-0.071 -0.005,-0.144 -0.038,-0.208c-0.038,-0.074 -0.122,-0.146 -0.188,-0.193c-0.125,-0.09 -0.298,-0.122 -0.446,-0.104c-0.037,0.004 -0.069,0.017 -0.102,0.032c-0.011,0.004 -0.025,0.024 -0.037,0.024" style="fill:none;stroke:#287121;stroke-width:0.23px;"/><path d="M2.565,9.139c0.011,-0.004 0.033,-0.054 0.042,-0.071c0.045,-0.08 0.078,-0.164 0.119,-0.246c0.035,-0.071 0.081,-0.135 0.106,-0.211c0.023,-0.069 0.034,-0.141 0.041,-0.213c0.008,-0.079 0.029,-0.157 0.031,-0.235c0.005,-0.218 -0.097,-0.538 -0.36,-0.538" style="fill:none;stroke:#287121;stroke-width:0.23px;"/><path d="M2.274,7.728c-0.003,-0.004 0.039,-0.021 0.058,-0.031c0.044,-0.024 0.088,-0.047 0.132,-0.069c0.075,-0.038 0.16,-0.081 0.226,-0.134c0.015,-0.012 0.054,-0.055 0.07,-0.055" style="fill:none;stroke:#287121;stroke-width:0.23px;"/><path d="M2.979,8.208c0.101,0.011 0.21,-0.003 0.312,-0.003c0.124,0 0.247,0.013 0.372,0.013c0.063,0 0.123,0 0.185,-0.009c0.014,-0.001 0.045,0.006 0.056,-0.002c0.022,-0.017 0.03,-0.055 0.045,-0.077c0.044,-0.068 0.075,-0.147 0.118,-0.211" style="fill:none;stroke:#287121;stroke-width:0.23px;"/><path d="M3.844,7.846c0.002,-0.007 0.094,-0.007 0.1,-0.007c0.092,-0.005 0.195,-0.017 0.284,-0.017" style="fill:none;stroke:#287121;stroke-width:0.23px;"/><path d="M3.935,8.286c0.013,0.049 0.06,0.092 0.088,0.133c0.049,0.072 0.087,0.155 0.129,0.232c0.07,0.129 0.117,0.272 0.185,0.402c0.02,0.039 0.028,0.096 0.06,0.128" style="fill:none;stroke:#287121;stroke-width:0.23px;"/><path d="M4.148,8.639c-0.003,-0.003 -0.021,0.007 -0.024,0.009c-0.025,0.014 -0.05,0.033 -0.074,0.05c-0.111,0.076 -0.187,0.163 -0.249,0.282c-0.093,0.175 -0.058,0.449 0.086,0.588c0.06,0.058 0.144,0.085 0.222,0.107c0.123,0.036 0.242,0.062 0.368,0.024c0.063,-0.019 0.109,-0.057 0.157,-0.1c0.131,-0.117 0.197,-0.261 0.202,-0.436c0.002,-0.049 0.009,-0.095 -0.006,-0.143c-0.077,-0.229 -0.322,-0.424 -0.568,-0.398c-0.056,0.006 -0.112,0.01 -0.163,0.038" style="fill:none;stroke:#287121;stroke-width:0.23px;"/><path d="M1.43,4.805c-0.17,0.162 -0.361,-0.065 -0.528,-0.084c-0.106,-0.013 -0.211,0.044 -0.318,0.043c-0.048,-0 -0.152,0.028 -0.141,-0.047c0.049,-0.345 0.034,-0.516 0.042,-0.588c0.027,-0.243 0.034,-0.49 0.048,-0.736c0.014,-0.247 -0.003,-0.478 0.004,-0.726c0.001,-0.035 0.008,-0.481 0.04,-0.514c0.024,-0.024 0.368,0.087 0.39,0.09c0.1,0.016 0.201,0.01 0.301,0.024c0.099,0.013 0.35,0.03 0.448,0.063c0.019,0.007 -0.133,0.078 -0.132,0.095c0,0.157 0.008,0.314 0,0.471c-0.027,0.524 -0.065,1.047 -0.107,1.568c-0.009,0.116 -0.014,0.237 -0.047,0.341" style="fill:#287121;stroke:#287121;stroke-width:0.35px;"/><path d="M2.301,15.383c-0.003,-0.005 -0.021,0.006 -0.024,0.008c-0.026,0.015 -0.048,0.038 -0.07,0.059c-0.083,0.076 -0.168,0.199 -0.216,0.301c-0.04,0.085 -0.071,0.204 -0.06,0.299c0.027,0.255 0.239,0.45 0.476,0.511c0.098,0.025 0.204,0.041 0.302,0.005c0.172,-0.063 0.334,-0.213 0.395,-0.387c0.032,-0.091 0.032,-0.186 0.03,-0.281c-0.002,-0.076 -0.005,-0.154 -0.041,-0.223c-0.04,-0.079 -0.13,-0.157 -0.201,-0.208c-0.134,-0.095 -0.319,-0.13 -0.478,-0.111c-0.039,0.005 -0.074,0.019 -0.109,0.034c-0.012,0.006 -0.026,0.027 -0.039,0.027" style="fill:none;stroke:#287121;stroke-width:0.23px;"/><path d="M2.508,15.899c0.012,-0.005 0.035,-0.058 0.045,-0.076c0.048,-0.086 0.083,-0.176 0.127,-0.264c0.038,-0.076 0.087,-0.145 0.114,-0.226c0.024,-0.074 0.036,-0.151 0.044,-0.228c0.009,-0.084 0.031,-0.168 0.033,-0.252c0.005,-0.233 -0.104,-0.575 -0.386,-0.575" style="fill:none;stroke:#287121;stroke-width:0.23px;"/><path d="M2.196,14.388c-0.003,-0.005 0.042,-0.023 0.062,-0.034c0.047,-0.025 0.094,-0.05 0.142,-0.073c0.08,-0.041 0.171,-0.087 0.242,-0.144c0.016,-0.012 0.058,-0.059 0.074,-0.059" style="fill:none;stroke:#287121;stroke-width:0.23px;"/><path d="M2.951,14.902c0.108,0.012 0.224,-0.003 0.334,-0.003c0.133,-0 0.265,0.014 0.398,0.014c0.067,-0 0.132,-0 0.199,-0.01c0.014,-0.002 0.047,0.006 0.059,-0.003c0.024,-0.018 0.033,-0.058 0.048,-0.082c0.048,-0.073 0.081,-0.157 0.127,-0.226" style="fill:none;stroke:#287121;stroke-width:0.23px;"/><path d="M3.877,14.514c0.003,-0.008 0.1,-0.007 0.107,-0.008c0.098,-0.005 0.209,-0.018 0.304,-0.018" style="fill:none;stroke:#287121;stroke-width:0.23px;"/><path d="M3.975,14.986c0.013,0.051 0.064,0.098 0.093,0.141c0.053,0.078 0.094,0.167 0.139,0.249c0.075,0.138 0.125,0.292 0.198,0.431c0.022,0.041 0.03,0.102 0.064,0.136" style="fill:none;stroke:#287121;stroke-width:0.23px;"/><path d="M4.203,15.363c-0.003,-0.003 -0.023,0.008 -0.026,0.01c-0.027,0.015 -0.053,0.035 -0.08,0.053c-0.118,0.082 -0.199,0.174 -0.266,0.302c-0.099,0.188 -0.062,0.48 0.092,0.629c0.065,0.063 0.154,0.092 0.238,0.116c0.132,0.038 0.259,0.066 0.394,0.025c0.068,-0.02 0.117,-0.061 0.168,-0.107c0.14,-0.125 0.211,-0.28 0.217,-0.467c0.001,-0.052 0.009,-0.102 -0.008,-0.153c-0.081,-0.245 -0.344,-0.453 -0.607,-0.426c-0.06,0.006 -0.12,0.01 -0.175,0.041" style="fill:none;stroke:#287121;stroke-width:0.23px;"/><path d="M2.301,11.91c-0.003,-0.005 -0.021,0.006 -0.024,0.008c-0.026,0.015 -0.048,0.038 -0.07,0.058c-0.083,0.077 -0.168,0.199 -0.216,0.302c-0.04,0.085 -0.071,0.203 -0.06,0.298c0.027,0.256 0.239,0.451 0.476,0.512c0.098,0.025 0.204,0.041 0.302,0.005c0.172,-0.063 0.334,-0.213 0.395,-0.388c0.032,-0.091 0.032,-0.185 0.03,-0.28c-0.002,-0.076 -0.005,-0.154 -0.041,-0.224c-0.04,-0.078 -0.13,-0.156 -0.201,-0.207c-0.134,-0.095 -0.319,-0.13 -0.478,-0.111c-0.039,0.005 -0.074,0.019 -0.109,0.034c-0.012,0.006 -0.026,0.027 -0.039,0.027" style="fill:none;stroke:#287121;stroke-width:0.23px;"/><path d="M2.508,12.425c0.012,-0.004 0.035,-0.057 0.045,-0.075c0.048,-0.086 0.083,-0.177 0.127,-0.264c0.038,-0.076 0.087,-0.145 0.114,-0.226c0.024,-0.074 0.036,-0.151 0.044,-0.228c0.009,-0.084 0.031,-0.168 0.033,-0.252c0.005,-0.233 -0.104,-0.575 -0.386,-0.575" style="fill:none;stroke:#287121;stroke-width:0.23px;"/><path d="M2.196,10.914c-0.003,-0.004 0.042,-0.022 0.062,-0.033c0.047,-0.025 0.094,-0.05 0.142,-0.073c0.08,-0.041 0.171,-0.087 0.242,-0.144c0.016,-0.012 0.058,-0.059 0.074,-0.059" style="fill:none;stroke:#287121;stroke-width:0.23px;"/><path d="M2.951,11.428c0.108,0.013 0.224,-0.003 0.334,-0.003c0.133,0 0.265,0.014 0.398,0.014c0.067,0 0.132,0.001 0.199,-0.009c0.014,-0.002 0.047,0.006 0.059,-0.003c0.024,-0.018 0.033,-0.058 0.048,-0.082c0.048,-0.073 0.081,-0.157 0.127,-0.226" style="fill:none;stroke:#287121;stroke-width:0.23px;"/><path d="M3.877,11.041c0.003,-0.008 0.1,-0.007 0.107,-0.008c0.098,-0.005 0.209,-0.018 0.304,-0.018" style="fill:none;stroke:#287121;stroke-width:0.23px;"/><path d="M3.975,11.513c0.013,0.051 0.064,0.097 0.093,0.141c0.053,0.078 0.094,0.166 0.139,0.249c0.075,0.138 0.125,0.291 0.198,0.431c0.022,0.041 0.03,0.102 0.064,0.136" style="fill:none;stroke:#287121;stroke-width:0.23px;"/><path d="M4.203,11.89c-0.003,-0.003 -0.023,0.008 -0.026,0.009c-0.027,0.016 -0.053,0.036 -0.08,0.054c-0.118,0.082 -0.199,0.174 -0.266,0.302c-0.099,0.188 -0.062,0.48 0.092,0.629c0.065,0.063 0.154,0.092 0.238,0.116c0.132,0.037 0.259,0.065 0.394,0.025c0.068,-0.02 0.117,-0.061 0.168,-0.107c0.14,-0.125 0.211,-0.28 0.217,-0.467c0.001,-0.052 0.009,-0.102 -0.008,-0.153c-0.081,-0.245 -0.344,-0.454 -0.607,-0.426c-0.06,0.006 -0.12,0.01 -0.175,0.04" style="fill:none;stroke:#287121;stroke-width:0.23px;"/></g></svg>