<?xml version="1.0" encoding="UTF-8" standalone="no"?><!DOCTYPE svg PUBLIC "-//W3C//DTD SVG 1.1//EN" "http://www.w3.org/Graphics/SVG/1.1/DTD/svg11.dtd"><svg width="100%" height="100%" viewBox="0 0 7 6" version="1.1" xmlns="http://www.w3.org/2000/svg" xmlns:xlink="http://www.w3.org/1999/xlink" xml:space="preserve" xmlns:serif="http://www.serif.com/" style="fill-rule:evenodd;clip-rule:evenodd;stroke-linecap:round;stroke-linejoin:round;stroke-miterlimit:1.5;"><rect id="_3-full" serif:id="3-full" x="0.187" y="0.073" width="6.002" height="5.741" style="fill:none;"/><g id="_3-full1" serif:id="3-full"><ellipse cx="2.947" cy="3.12" rx="2.114" ry="2.101" style="fill:#cd3a43;stroke:#cd3a43;stroke-width:0.19px;"/><g><path d="M3.335,2.512c-0.001,-0.004 -0.014,-0.001 -0.016,-0.001c-0.018,0.004 -0.035,0.012 -0.052,0.019c-0.063,0.026 -0.135,0.078 -0.182,0.126c-0.039,0.039 -0.079,0.099 -0.091,0.154c-0.031,0.147 0.057,0.297 0.185,0.377c0.053,0.033 0.113,0.062 0.177,0.062c0.112,-0.002 0.235,-0.054 0.303,-0.139c0.035,-0.044 0.053,-0.097 0.069,-0.15c0.013,-0.043 0.026,-0.087 0.018,-0.132c-0.01,-0.052 -0.048,-0.112 -0.08,-0.154c-0.061,-0.079 -0.163,-0.135 -0.26,-0.155c-0.024,-0.005 -0.047,-0.004 -0.07,-0.002c-0.008,0 -0.021,0.009 -0.028,0.007" style="fill:none;stroke:#fff;stroke-width:0.14px;"/><path d="M3.361,2.838c0.007,0 0.031,-0.025 0.04,-0.033c0.044,-0.038 0.082,-0.082 0.123,-0.122c0.037,-0.034 0.078,-0.063 0.109,-0.103c0.028,-0.036 0.049,-0.077 0.068,-0.118c0.02,-0.045 0.049,-0.088 0.066,-0.134c0.046,-0.128 0.045,-0.34 -0.121,-0.395" style="fill:none;stroke:#fff;stroke-width:0.14px;"/><path d="M3.457,1.938c-0.001,-0.003 0.028,-0.004 0.042,-0.006c0.032,-0.005 0.064,-0.01 0.097,-0.014c0.055,-0.007 0.116,-0.015 0.168,-0.032c0.012,-0.004 0.045,-0.022 0.055,-0.019" style="fill:none;stroke:#fff;stroke-width:0.14px;"/><path d="M3.805,2.371c0.061,0.027 0.132,0.042 0.196,0.063c0.078,0.026 0.153,0.059 0.231,0.085c0.04,0.014 0.078,0.026 0.119,0.034c0.008,0.002 0.026,0.012 0.035,0.01c0.017,-0.005 0.03,-0.026 0.044,-0.037c0.041,-0.031 0.076,-0.071 0.116,-0.1" style="fill:none;stroke:#fff;stroke-width:0.14px;"/><path d="M4.42,2.336c0.003,-0.004 0.06,0.015 0.064,0.016c0.059,0.016 0.126,0.031 0.182,0.049" style="fill:none;stroke:#fff;stroke-width:0.14px;"/><path d="M4.39,2.617c-0.002,0.031 0.02,0.067 0.029,0.097c0.016,0.053 0.024,0.11 0.035,0.165c0.019,0.091 0.02,0.187 0.037,0.278c0.005,0.027 -0.002,0.063 0.012,0.088" style="fill:none;stroke:#fff;stroke-width:0.14px;"/><path d="M4.454,2.871c-0.001,-0.002 -0.015,0 -0.016,0c-0.02,0.004 -0.039,0.01 -0.057,0.015c-0.085,0.022 -0.15,0.057 -0.213,0.115c-0.092,0.086 -0.124,0.255 -0.061,0.368c0.026,0.047 0.073,0.081 0.118,0.111c0.07,0.046 0.139,0.087 0.226,0.09c0.044,0.002 0.08,-0.011 0.119,-0.026c0.105,-0.042 0.175,-0.115 0.213,-0.218c0.011,-0.028 0.025,-0.054 0.024,-0.086c-0.003,-0.152 -0.119,-0.319 -0.278,-0.355c-0.036,-0.009 -0.072,-0.018 -0.11,-0.012" style="fill:none;stroke:#fff;stroke-width:0.14px;"/></g><g><path d="M4.62,0.835c0.001,-0.004 -0.011,-0.008 -0.013,-0.009c-0.017,-0.006 -0.037,-0.008 -0.054,-0.01c-0.067,-0.01 -0.156,-0.004 -0.221,0.013c-0.054,0.014 -0.119,0.044 -0.157,0.085c-0.103,0.11 -0.105,0.284 -0.037,0.419c0.029,0.055 0.064,0.111 0.119,0.143c0.098,0.058 0.229,0.076 0.331,0.039c0.054,-0.02 0.096,-0.056 0.138,-0.093c0.033,-0.03 0.066,-0.061 0.083,-0.104c0.018,-0.049 0.017,-0.121 0.011,-0.174c-0.011,-0.099 -0.07,-0.199 -0.143,-0.266c-0.017,-0.017 -0.037,-0.028 -0.058,-0.039c-0.008,-0.003 -0.023,-0.002 -0.028,-0.008" style="fill:none;stroke:#cd3a43;stroke-width:0.14px;"/><path d="M4.474,1.128c0.006,0.004 0.039,-0.006 0.052,-0.008c0.057,-0.01 0.111,-0.027 0.168,-0.04c0.049,-0.011 0.099,-0.015 0.146,-0.033c0.043,-0.016 0.082,-0.04 0.12,-0.066c0.04,-0.028 0.087,-0.049 0.125,-0.08c0.106,-0.086 0.214,-0.268 0.101,-0.4" style="fill:none;stroke:#cd3a43;stroke-width:0.14px;"/><path d="M5.021,0.407c0.001,-0.004 0.027,0.011 0.04,0.016c0.03,0.013 0.06,0.025 0.089,0.039c0.051,0.022 0.108,0.047 0.161,0.059c0.013,0.003 0.05,0.005 0.057,0.012" style="fill:none;stroke:#cd3a43;stroke-width:0.14px;"/><path d="M5.095,0.957c0.039,0.055 0.092,0.104 0.136,0.156c0.054,0.062 0.1,0.13 0.154,0.192c0.027,0.032 0.053,0.063 0.084,0.09c0.006,0.006 0.016,0.025 0.025,0.027c0.017,0.004 0.039,-0.007 0.056,-0.009c0.051,-0.005 0.102,-0.021 0.152,-0.026" style="fill:none;stroke:#cd3a43;stroke-width:0.14px;"/><path d="M5.64,1.245c0.004,-0.002 0.044,0.044 0.047,0.047c0.041,0.044 0.092,0.092 0.13,0.136" style="fill:none;stroke:#cd3a43;stroke-width:0.14px;"/><path d="M5.469,1.47c-0.017,0.026 -0.017,0.068 -0.025,0.098c-0.014,0.054 -0.036,0.107 -0.055,0.16c-0.032,0.088 -0.08,0.17 -0.112,0.257c-0.01,0.026 -0.034,0.053 -0.035,0.082" style="fill:none;stroke:#cd3a43;stroke-width:0.14px;"/><path d="M5.393,1.721c0,-0.003 -0.013,-0.008 -0.014,-0.008c-0.019,-0.007 -0.038,-0.012 -0.056,-0.018c-0.084,-0.024 -0.158,-0.027 -0.242,-0.01c-0.123,0.025 -0.239,0.154 -0.243,0.283c-0.002,0.054 0.021,0.107 0.044,0.156c0.036,0.076 0.075,0.146 0.147,0.194c0.036,0.024 0.074,0.032 0.115,0.039c0.112,0.018 0.21,-0.008 0.295,-0.076c0.024,-0.019 0.05,-0.035 0.065,-0.062c0.077,-0.131 0.064,-0.334 -0.054,-0.447c-0.027,-0.026 -0.053,-0.053 -0.088,-0.067" style="fill:none;stroke:#cd3a43;stroke-width:0.14px;"/></g><g><path d="M1.629,3.506c-0.001,-0.003 -0.013,-0.001 -0.015,-0c-0.018,0.003 -0.036,0.012 -0.052,0.019c-0.063,0.026 -0.136,0.078 -0.182,0.125c-0.04,0.04 -0.08,0.1 -0.091,0.154c-0.031,0.148 0.057,0.298 0.185,0.377c0.053,0.033 0.113,0.063 0.176,0.062c0.113,-0.001 0.236,-0.053 0.304,-0.138c0.035,-0.045 0.053,-0.097 0.069,-0.15c0.013,-0.043 0.026,-0.087 0.017,-0.132c-0.009,-0.052 -0.047,-0.113 -0.08,-0.155c-0.06,-0.079 -0.162,-0.134 -0.259,-0.155c-0.024,-0.005 -0.047,-0.004 -0.071,-0.002c-0.008,0.001 -0.02,0.01 -0.028,0.007" style="fill:none;stroke:#fff;stroke-width:0.14px;"/><path d="M1.656,3.833c0.007,-0 0.031,-0.025 0.04,-0.033c0.044,-0.039 0.081,-0.082 0.123,-0.122c0.036,-0.035 0.078,-0.064 0.108,-0.103c0.029,-0.037 0.05,-0.077 0.069,-0.119c0.02,-0.045 0.049,-0.087 0.065,-0.133c0.047,-0.129 0.046,-0.34 -0.12,-0.395" style="fill:none;stroke:#fff;stroke-width:0.14px;"/><path d="M1.752,2.933c-0.002,-0.004 0.028,-0.005 0.042,-0.007c0.032,-0.005 0.064,-0.009 0.097,-0.013c0.054,-0.007 0.116,-0.015 0.168,-0.033c0.012,-0.004 0.045,-0.021 0.055,-0.018" style="fill:none;stroke:#fff;stroke-width:0.14px;"/><path d="M2.099,3.365c0.062,0.028 0.133,0.042 0.197,0.064c0.078,0.026 0.153,0.059 0.231,0.085c0.04,0.013 0.078,0.026 0.119,0.034c0.008,0.001 0.026,0.012 0.035,0.009c0.017,-0.005 0.03,-0.025 0.043,-0.036c0.041,-0.031 0.077,-0.071 0.117,-0.101" style="fill:none;stroke:#fff;stroke-width:0.14px;"/><path d="M2.714,3.33c0.003,-0.003 0.061,0.016 0.065,0.017c0.058,0.016 0.126,0.031 0.182,0.049" style="fill:none;stroke:#fff;stroke-width:0.14px;"/><path d="M2.685,3.611c-0.002,0.032 0.019,0.067 0.029,0.097c0.016,0.054 0.024,0.111 0.035,0.166c0.018,0.091 0.02,0.186 0.037,0.278c0.005,0.027 -0.002,0.062 0.012,0.088" style="fill:none;stroke:#fff;stroke-width:0.14px;"/><path d="M2.749,3.866c-0.001,-0.003 -0.015,-0 -0.017,-0c-0.019,0.003 -0.038,0.009 -0.057,0.014c-0.084,0.023 -0.149,0.058 -0.212,0.116c-0.092,0.085 -0.125,0.255 -0.062,0.368c0.027,0.047 0.074,0.081 0.119,0.11c0.07,0.047 0.139,0.087 0.226,0.091c0.044,0.002 0.08,-0.011 0.119,-0.027c0.105,-0.042 0.175,-0.114 0.213,-0.217c0.01,-0.029 0.024,-0.055 0.024,-0.086c-0.003,-0.152 -0.119,-0.32 -0.278,-0.356c-0.036,-0.008 -0.072,-0.017 -0.11,-0.011" style="fill:none;stroke:#fff;stroke-width:0.14px;"/></g></g></svg>