<?xml version="1.0" encoding="UTF-8" standalone="no"?><!DOCTYPE svg PUBLIC "-//W3C//DTD SVG 1.1//EN" "http://www.w3.org/Graphics/SVG/1.1/DTD/svg11.dtd"><svg width="100%" height="100%" viewBox="0 0 6 6" version="1.1" xmlns="http://www.w3.org/2000/svg" xmlns:xlink="http://www.w3.org/1999/xlink" xml:space="preserve" xmlns:serif="http://www.serif.com/" style="fill-rule:evenodd;clip-rule:evenodd;stroke-linecap:round;stroke-linejoin:round;stroke-miterlimit:1.5;"><rect id="_3-low-ebike" serif:id="3-low-ebike" x="0.115" y="0.111" width="5.381" height="5.435" style="fill:none;"/><g id="_3-low-ebike1" serif:id="3-low-ebike"><ellipse cx="2.874" cy="2.853" rx="2.114" ry="2.101" style="fill:#de5126;stroke:#de5126;stroke-width:0.19px;"/><g><path d="M2.29,2.987c-0.002,-0.003 -0.012,0.003 -0.013,0.004c-0.014,0.009 -0.026,0.021 -0.038,0.032c-0.044,0.042 -0.09,0.108 -0.116,0.164c-0.021,0.046 -0.038,0.11 -0.032,0.162c0.015,0.139 0.128,0.245 0.255,0.278c0.053,0.013 0.11,0.022 0.162,0.002c0.093,-0.034 0.18,-0.115 0.212,-0.21c0.017,-0.049 0.018,-0.101 0.017,-0.152c-0.001,-0.042 -0.003,-0.084 -0.022,-0.122c-0.022,-0.042 -0.07,-0.084 -0.108,-0.112c-0.072,-0.052 -0.171,-0.071 -0.257,-0.06c-0.021,0.002 -0.039,0.01 -0.058,0.018c-0.007,0.003 -0.015,0.015 -0.021,0.015" style="fill:none;stroke:#fff;stroke-width:0.12px;"/><path d="M2.401,3.267c0.006,-0.002 0.018,-0.031 0.023,-0.041c0.026,-0.047 0.045,-0.096 0.069,-0.143c0.02,-0.041 0.046,-0.079 0.061,-0.123c0.013,-0.04 0.019,-0.082 0.024,-0.124c0.004,-0.045 0.016,-0.091 0.017,-0.137c0.003,-0.126 -0.056,-0.312 -0.207,-0.312" style="fill:none;stroke:#fff;stroke-width:0.12px;"/><path d="M2.233,2.447c-0.002,-0.003 0.023,-0.012 0.033,-0.018c0.026,-0.014 0.051,-0.027 0.076,-0.04c0.044,-0.022 0.092,-0.047 0.13,-0.078c0.009,-0.007 0.031,-0.032 0.04,-0.032" style="fill:none;stroke:#fff;stroke-width:0.12px;"/><path d="M2.638,2.726c0.058,0.006 0.121,-0.002 0.179,-0.002c0.072,0 0.143,0.008 0.214,0.008c0.036,-0 0.071,-0 0.107,-0.005c0.008,-0.001 0.025,0.003 0.032,-0.002c0.013,-0.01 0.017,-0.032 0.026,-0.045c0.025,-0.039 0.043,-0.085 0.068,-0.123" style="fill:none;stroke:#fff;stroke-width:0.12px;"/><path d="M3.135,2.515c0.002,-0.004 0.054,-0.004 0.058,-0.004c0.053,-0.003 0.112,-0.01 0.163,-0.01" style="fill:none;stroke:#fff;stroke-width:0.12px;"/><path d="M3.188,2.771c0.007,0.028 0.034,0.054 0.05,0.077c0.028,0.042 0.05,0.091 0.074,0.135c0.041,0.075 0.068,0.159 0.107,0.234c0.011,0.023 0.016,0.056 0.034,0.074" style="fill:none;stroke:#fff;stroke-width:0.12px;"/><path d="M3.31,2.976c-0.001,-0.002 -0.012,0.005 -0.013,0.005c-0.015,0.009 -0.029,0.02 -0.043,0.03c-0.064,0.044 -0.107,0.094 -0.144,0.164c-0.052,0.102 -0.033,0.26 0.05,0.341c0.035,0.034 0.083,0.05 0.128,0.063c0.071,0.02 0.139,0.035 0.211,0.013c0.037,-0.011 0.063,-0.033 0.091,-0.058c0.075,-0.067 0.113,-0.152 0.116,-0.253c0.001,-0.029 0.005,-0.056 -0.004,-0.083c-0.044,-0.133 -0.185,-0.246 -0.326,-0.232c-0.033,0.004 -0.065,0.006 -0.094,0.023" style="fill:none;stroke:#fff;stroke-width:0.12px;"/></g><path d="M3.01,0.842c-0.014,0.011 -0.023,0.032 -0.034,0.047c-0.023,0.033 -0.048,0.067 -0.073,0.099c-0.074,0.091 -0.162,0.17 -0.231,0.264c-0.022,0.031 -0.046,0.056 -0.072,0.084c-0.011,0.011 -0.027,0.025 -0.03,0.042c-0.003,0.016 0.024,0.007 0.035,0.008c0.038,0.007 0.079,0.001 0.117,0.011c0.013,0.004 0.027,0.005 0.041,0.007c0.004,0 0.009,0 0.013,0c0.003,0 0.009,-0.001 0.007,-0.001c-0.003,0 -0.007,0.025 -0.008,0.027c-0.008,0.03 -0.015,0.061 -0.024,0.09c-0.023,0.073 -0.043,0.148 -0.063,0.222c-0.006,0.023 -0.01,0.047 -0.012,0.072c-0,0.008 0,0.016 -0.001,0.024c-0,0.004 -0,0.013 -0,0.013c-0,-0 0.012,-0.016 0.018,-0.023c0.012,-0.016 0.025,-0.032 0.038,-0.048c0.035,-0.047 0.076,-0.091 0.113,-0.137c0.076,-0.094 0.155,-0.183 0.238,-0.27c0.022,-0.022 0.044,-0.046 0.064,-0.071c0.003,-0.004 0.02,-0.014 0.02,-0.018c-0,-0.003 -0.012,-0.003 -0.013,-0.004c-0.014,-0.001 -0.028,-0.006 -0.041,-0.01c-0.045,-0.015 -0.094,-0.018 -0.141,-0.026c-0.006,-0.001 -0.043,-0.002 -0.046,-0.006c-0.002,-0.002 0.006,-0.015 0.006,-0.017c0.009,-0.017 0.013,-0.034 0.016,-0.053c0.011,-0.082 0.028,-0.162 0.053,-0.24c0.006,-0.019 0.014,-0.038 0.019,-0.057c0.002,-0.004 0.004,-0.026 0.006,-0.026" style="fill:#fff;"/></g></svg>