<?xml version="1.0" encoding="UTF-8" standalone="no"?><!DOCTYPE svg PUBLIC "-//W3C//DTD SVG 1.1//EN" "http://www.w3.org/Graphics/SVG/1.1/DTD/svg11.dtd"><svg width="100%" height="100%" viewBox="0 0 6 6" version="1.1" xmlns="http://www.w3.org/2000/svg" xmlns:xlink="http://www.w3.org/1999/xlink" xml:space="preserve" xmlns:serif="http://www.serif.com/" style="fill-rule:evenodd;clip-rule:evenodd;stroke-linecap:round;stroke-linejoin:round;stroke-miterlimit:1.5;"><rect id="_3-low" serif:id="3-low" x="0.115" y="0.059" width="5.381" height="5.381" style="fill:none;"/><g id="_3-low1" serif:id="3-low"><ellipse cx="2.874" cy="2.746" rx="2.114" ry="2.101" style="fill:#de5126;stroke:#de5126;stroke-width:0.19px;"/><path d="M2.278,2.705c-0.002,-0.003 -0.011,0.003 -0.013,0.004c-0.014,0.008 -0.026,0.021 -0.038,0.032c-0.044,0.041 -0.09,0.108 -0.116,0.163c-0.021,0.047 -0.038,0.111 -0.032,0.163c0.015,0.138 0.128,0.244 0.256,0.277c0.052,0.014 0.109,0.022 0.162,0.003c0.092,-0.034 0.179,-0.116 0.212,-0.21c0.017,-0.05 0.017,-0.101 0.016,-0.153c-0.001,-0.041 -0.003,-0.084 -0.022,-0.121c-0.022,-0.043 -0.07,-0.085 -0.108,-0.112c-0.072,-0.052 -0.171,-0.071 -0.257,-0.061c-0.02,0.003 -0.039,0.01 -0.058,0.019c-0.006,0.003 -0.014,0.014 -0.021,0.014" style="fill:none;stroke:#fff;stroke-width:0.12px;"/><path d="M2.389,2.985c0.006,-0.003 0.018,-0.032 0.024,-0.042c0.026,-0.046 0.045,-0.095 0.068,-0.143c0.021,-0.041 0.047,-0.078 0.061,-0.122c0.013,-0.04 0.02,-0.082 0.024,-0.124c0.005,-0.046 0.016,-0.091 0.018,-0.137c0.003,-0.127 -0.056,-0.312 -0.208,-0.312" style="fill:none;stroke:#fff;stroke-width:0.12px;"/><path d="M2.222,2.164c-0.002,-0.002 0.022,-0.012 0.033,-0.018c0.025,-0.014 0.05,-0.027 0.076,-0.04c0.043,-0.022 0.091,-0.047 0.13,-0.078c0.008,-0.006 0.031,-0.032 0.04,-0.032" style="fill:none;stroke:#fff;stroke-width:0.12px;"/><path d="M2.627,2.443c0.058,0.007 0.12,-0.001 0.179,-0.001c0.071,-0 0.142,0.007 0.214,0.007c0.036,0 0.071,0 0.106,-0.005c0.008,-0.001 0.026,0.003 0.032,-0.001c0.013,-0.01 0.018,-0.032 0.026,-0.045c0.025,-0.04 0.043,-0.085 0.068,-0.123" style="fill:none;stroke:#fff;stroke-width:0.12px;"/><path d="M3.124,2.233c0.001,-0.004 0.054,-0.004 0.057,-0.004c0.053,-0.003 0.113,-0.01 0.163,-0.01" style="fill:none;stroke:#fff;stroke-width:0.12px;"/><path d="M3.176,2.489c0.007,0.028 0.035,0.053 0.05,0.077c0.029,0.042 0.051,0.09 0.075,0.135c0.04,0.075 0.067,0.158 0.106,0.234c0.012,0.022 0.016,0.055 0.034,0.074" style="fill:none;stroke:#fff;stroke-width:0.12px;"/><path d="M3.299,2.694c-0.002,-0.002 -0.013,0.004 -0.014,0.005c-0.015,0.009 -0.029,0.019 -0.043,0.029c-0.064,0.045 -0.107,0.095 -0.143,0.164c-0.053,0.102 -0.033,0.261 0.049,0.342c0.035,0.033 0.083,0.049 0.128,0.062c0.071,0.021 0.139,0.036 0.212,0.014c0.036,-0.011 0.062,-0.033 0.09,-0.058c0.075,-0.068 0.113,-0.152 0.116,-0.254c0.001,-0.028 0.005,-0.055 -0.004,-0.083c-0.044,-0.133 -0.185,-0.246 -0.326,-0.231c-0.032,0.003 -0.064,0.006 -0.094,0.022" style="fill:none;stroke:#fff;stroke-width:0.12px;"/></g></svg>