<?xml version="1.0" encoding="UTF-8" standalone="no"?><!DOCTYPE svg PUBLIC "-//W3C//DTD SVG 1.1//EN" "http://www.w3.org/Graphics/SVG/1.1/DTD/svg11.dtd"><svg width="100%" height="100%" viewBox="0 0 6 6" version="1.1" xmlns="http://www.w3.org/2000/svg" xmlns:xlink="http://www.w3.org/1999/xlink" xml:space="preserve" xmlns:serif="http://www.serif.com/" style="fill-rule:evenodd;clip-rule:evenodd;stroke-linecap:round;stroke-linejoin:round;stroke-miterlimit:1.5;"><rect id="_3-low-many-ebike" serif:id="3-low-many-ebike" x="0.115" y="0.207" width="5.381" height="5.435" style="fill:none;"/><g id="_3-low-many-ebike1" serif:id="3-low-many-ebike"><ellipse cx="2.874" cy="2.948" rx="2.114" ry="2.101" style="fill:#de5126;stroke:#de5126;stroke-width:0.19px;"/><g><path d="M2.195,3.099c-0.002,-0.003 -0.012,0.003 -0.013,0.004c-0.014,0.008 -0.026,0.021 -0.038,0.032c-0.044,0.041 -0.09,0.108 -0.116,0.163c-0.021,0.047 -0.038,0.111 -0.032,0.162c0.015,0.139 0.128,0.245 0.256,0.278c0.052,0.014 0.109,0.022 0.162,0.003c0.092,-0.034 0.179,-0.116 0.211,-0.211c0.017,-0.049 0.018,-0.101 0.017,-0.152c-0.001,-0.041 -0.003,-0.084 -0.022,-0.121c-0.022,-0.043 -0.07,-0.085 -0.108,-0.113c-0.072,-0.051 -0.171,-0.07 -0.257,-0.06c-0.021,0.003 -0.039,0.01 -0.058,0.019c-0.007,0.002 -0.014,0.014 -0.021,0.014" style="fill:none;stroke:#fff;stroke-width:0.12px;"/><path d="M2.306,3.378c0.006,-0.002 0.018,-0.031 0.024,-0.041c0.025,-0.046 0.045,-0.095 0.068,-0.143c0.02,-0.041 0.046,-0.079 0.061,-0.122c0.013,-0.041 0.02,-0.082 0.024,-0.124c0.004,-0.046 0.016,-0.091 0.017,-0.137c0.003,-0.127 -0.055,-0.313 -0.207,-0.313" style="fill:none;stroke:#fff;stroke-width:0.12px;"/><path d="M2.138,2.558c-0.001,-0.002 0.023,-0.012 0.034,-0.018c0.025,-0.014 0.05,-0.027 0.075,-0.04c0.044,-0.022 0.092,-0.047 0.13,-0.078c0.009,-0.007 0.032,-0.032 0.04,-0.032" style="fill:none;stroke:#fff;stroke-width:0.12px;"/><path d="M2.543,2.837c0.058,0.007 0.121,-0.001 0.179,-0.001c0.072,-0 0.143,0.007 0.214,0.007c0.036,0 0.071,0 0.107,-0.005c0.008,-0.001 0.026,0.003 0.032,-0.002c0.013,-0.009 0.017,-0.031 0.026,-0.044c0.025,-0.04 0.043,-0.085 0.068,-0.123" style="fill:none;stroke:#fff;stroke-width:0.12px;"/><path d="M3.04,2.627c0.002,-0.004 0.054,-0.004 0.058,-0.004c0.053,-0.003 0.112,-0.01 0.163,-0.01" style="fill:none;stroke:#fff;stroke-width:0.12px;"/><path d="M3.093,2.883c0.007,0.028 0.034,0.053 0.05,0.077c0.028,0.042 0.051,0.09 0.075,0.135c0.04,0.075 0.067,0.158 0.106,0.234c0.012,0.022 0.016,0.055 0.034,0.074" style="fill:none;stroke:#fff;stroke-width:0.12px;"/><path d="M3.215,3.088c-0.001,-0.002 -0.012,0.004 -0.013,0.005c-0.015,0.008 -0.029,0.019 -0.043,0.029c-0.064,0.044 -0.107,0.095 -0.143,0.164c-0.053,0.102 -0.034,0.261 0.049,0.342c0.035,0.033 0.083,0.049 0.128,0.062c0.071,0.021 0.139,0.036 0.211,0.014c0.037,-0.011 0.063,-0.033 0.091,-0.058c0.075,-0.068 0.113,-0.152 0.116,-0.254c0.001,-0.028 0.005,-0.055 -0.004,-0.083c-0.044,-0.133 -0.185,-0.246 -0.326,-0.231c-0.032,0.003 -0.065,0.005 -0.094,0.022" style="fill:none;stroke:#fff;stroke-width:0.12px;"/></g><path d="M2.665,1.036c-0.015,0.011 -0.024,0.032 -0.034,0.047c-0.024,0.033 -0.048,0.067 -0.074,0.099c-0.073,0.091 -0.162,0.17 -0.23,0.264c-0.022,0.031 -0.046,0.056 -0.072,0.083c-0.011,0.012 -0.027,0.026 -0.03,0.043c-0.003,0.016 0.024,0.007 0.035,0.008c0.038,0.007 0.079,0.001 0.116,0.011c0.014,0.004 0.028,0.005 0.041,0.007c0.005,0 0.009,0 0.014,0c0.002,0 0.009,-0.001 0.007,-0.001c-0.003,0 -0.007,0.025 -0.008,0.027c-0.008,0.03 -0.015,0.061 -0.024,0.09c-0.024,0.073 -0.043,0.147 -0.063,0.221c-0.006,0.024 -0.01,0.048 -0.012,0.073c-0.001,0.008 -0,0.016 -0.001,0.024c-0,0.004 -0.001,0.012 -0.001,0.012c0,0 0.012,-0.015 0.018,-0.022c0.013,-0.017 0.026,-0.032 0.038,-0.048c0.036,-0.047 0.077,-0.091 0.114,-0.137c0.075,-0.094 0.154,-0.184 0.238,-0.27c0.022,-0.023 0.044,-0.046 0.064,-0.071c0.003,-0.004 0.019,-0.014 0.019,-0.018c0,-0.003 -0.011,-0.003 -0.013,-0.004c-0.014,-0.001 -0.027,-0.006 -0.04,-0.01c-0.046,-0.016 -0.094,-0.018 -0.141,-0.026c-0.006,-0.002 -0.043,-0.002 -0.047,-0.006c-0.002,-0.002 0.006,-0.015 0.007,-0.017c0.009,-0.017 0.013,-0.034 0.015,-0.053c0.012,-0.082 0.028,-0.162 0.054,-0.24c0.006,-0.019 0.014,-0.038 0.019,-0.057c0.001,-0.004 0.004,-0.026 0.006,-0.026" style="fill:#fff;"/><path d="M3.367,1.036c-0.015,0.011 -0.024,0.032 -0.034,0.047c-0.024,0.033 -0.048,0.067 -0.074,0.099c-0.073,0.091 -0.162,0.17 -0.23,0.264c-0.022,0.031 -0.047,0.056 -0.072,0.083c-0.011,0.012 -0.027,0.026 -0.03,0.043c-0.003,0.016 0.024,0.007 0.035,0.008c0.038,0.007 0.079,0.001 0.116,0.011c0.013,0.004 0.028,0.005 0.041,0.007c0.005,0 0.009,0 0.014,0c0.002,0 0.009,-0.001 0.006,-0.001c-0.002,0 -0.006,0.025 -0.007,0.027c-0.008,0.03 -0.015,0.061 -0.025,0.09c-0.023,0.073 -0.042,0.147 -0.062,0.221c-0.006,0.024 -0.01,0.048 -0.012,0.073c-0.001,0.008 -0,0.016 -0.001,0.024c-0,0.004 -0.001,0.012 -0.001,0.012c0,0 0.012,-0.015 0.018,-0.022c0.013,-0.017 0.026,-0.032 0.038,-0.048c0.036,-0.047 0.077,-0.091 0.114,-0.137c0.075,-0.094 0.154,-0.184 0.238,-0.27c0.022,-0.023 0.044,-0.046 0.064,-0.071c0.003,-0.004 0.019,-0.014 0.019,-0.018c0,-0.003 -0.011,-0.003 -0.013,-0.004c-0.014,-0.001 -0.027,-0.006 -0.04,-0.01c-0.046,-0.016 -0.094,-0.018 -0.141,-0.026c-0.006,-0.002 -0.043,-0.002 -0.047,-0.006c-0.002,-0.002 0.006,-0.015 0.007,-0.017c0.008,-0.017 0.013,-0.034 0.015,-0.053c0.012,-0.082 0.028,-0.162 0.054,-0.24c0.006,-0.019 0.013,-0.038 0.019,-0.057c0.001,-0.004 0.004,-0.026 0.006,-0.026" style="fill:#fff;"/></g></svg>