<?xml version="1.0" encoding="UTF-8" standalone="no"?><!DOCTYPE svg PUBLIC "-//W3C//DTD SVG 1.1//EN" "http://www.w3.org/Graphics/SVG/1.1/DTD/svg11.dtd"><svg width="100%" height="100%" viewBox="0 0 6 6" version="1.1" xmlns="http://www.w3.org/2000/svg" xmlns:xlink="http://www.w3.org/1999/xlink" xml:space="preserve" xmlns:serif="http://www.serif.com/" style="fill-rule:evenodd;clip-rule:evenodd;stroke-linecap:round;stroke-linejoin:round;stroke-miterlimit:1.5;"><rect id="_3-normal-ebike" serif:id="3-normal-ebike" x="0.195" y="0.203" width="5.381" height="5.435" style="fill:none;"/><g id="_3-normal-ebike1" serif:id="3-normal-ebike"><ellipse cx="2.955" cy="2.944" rx="2.114" ry="2.101" style="fill:#287121;stroke:#287121;stroke-width:0.19px;"/><path d="M1.869,3.222c-0.004,-0.005 -0.021,0.006 -0.025,0.008c-0.025,0.015 -0.048,0.038 -0.07,0.058c-0.082,0.077 -0.168,0.199 -0.216,0.302c-0.039,0.085 -0.07,0.203 -0.06,0.298c0.028,0.256 0.239,0.451 0.477,0.512c0.097,0.025 0.204,0.041 0.301,0.005c0.173,-0.063 0.334,-0.213 0.395,-0.388c0.032,-0.091 0.032,-0.186 0.03,-0.28c-0.001,-0.076 -0.005,-0.155 -0.04,-0.224c-0.041,-0.078 -0.131,-0.156 -0.202,-0.207c-0.134,-0.095 -0.318,-0.13 -0.478,-0.111c-0.038,0.005 -0.073,0.019 -0.109,0.034c-0.011,0.005 -0.026,0.027 -0.039,0.027" style="fill:none;stroke:#fff;stroke-width:0.15px;"/><path d="M2.075,3.737c0.012,-0.004 0.035,-0.058 0.045,-0.076c0.048,-0.085 0.084,-0.176 0.127,-0.263c0.038,-0.076 0.087,-0.145 0.114,-0.226c0.024,-0.074 0.036,-0.151 0.044,-0.228c0.009,-0.084 0.031,-0.168 0.033,-0.252c0.005,-0.233 -0.104,-0.575 -0.386,-0.575" style="fill:none;stroke:#fff;stroke-width:0.15px;"/><path d="M1.764,2.226c-0.004,-0.004 0.041,-0.022 0.061,-0.033c0.047,-0.025 0.094,-0.05 0.142,-0.074c0.081,-0.04 0.171,-0.086 0.242,-0.143c0.016,-0.013 0.058,-0.059 0.075,-0.059" style="fill:none;stroke:#fff;stroke-width:0.15px;"/><path d="M2.518,2.74c0.108,0.013 0.225,-0.003 0.334,-0.003c0.133,0 0.265,0.014 0.398,0.014c0.068,0 0.133,0 0.199,-0.009c0.014,-0.002 0.048,0.006 0.059,-0.003c0.024,-0.018 0.033,-0.058 0.049,-0.082c0.047,-0.073 0.08,-0.157 0.127,-0.227" style="fill:none;stroke:#fff;stroke-width:0.15px;"/><path d="M3.444,2.353c0.003,-0.008 0.101,-0.008 0.107,-0.008c0.099,-0.006 0.21,-0.018 0.304,-0.018" style="fill:none;stroke:#fff;stroke-width:0.15px;"/><path d="M3.542,2.824c0.013,0.052 0.064,0.098 0.094,0.142c0.052,0.078 0.093,0.166 0.138,0.249c0.075,0.138 0.126,0.291 0.198,0.431c0.022,0.041 0.03,0.102 0.064,0.136" style="fill:none;stroke:#fff;stroke-width:0.15px;"/><path d="M3.77,3.202c-0.003,-0.004 -0.022,0.008 -0.025,0.009c-0.028,0.016 -0.054,0.036 -0.08,0.054c-0.119,0.082 -0.2,0.174 -0.267,0.302c-0.099,0.188 -0.062,0.48 0.092,0.629c0.065,0.062 0.154,0.092 0.238,0.116c0.132,0.037 0.259,0.065 0.394,0.025c0.068,-0.021 0.117,-0.061 0.169,-0.107c0.14,-0.125 0.21,-0.28 0.216,-0.468c0.001,-0.051 0.01,-0.101 -0.007,-0.152c-0.082,-0.245 -0.345,-0.454 -0.608,-0.427c-0.06,0.007 -0.12,0.011 -0.174,0.041" style="fill:none;stroke:#fff;stroke-width:0.15px;"/><path d="M3.108,0.929c-0.014,0.011 -0.023,0.033 -0.034,0.047c-0.024,0.034 -0.048,0.067 -0.074,0.099c-0.073,0.091 -0.161,0.17 -0.23,0.265c-0.022,0.03 -0.046,0.056 -0.072,0.083c-0.011,0.011 -0.027,0.026 -0.03,0.042c-0.003,0.016 0.024,0.007 0.035,0.009c0.038,0.006 0.079,-0 0.116,0.01c0.014,0.004 0.028,0.005 0.041,0.007c0.005,0.001 0.01,0 0.014,0c0.002,0 0.009,-0 0.007,-0c-0.003,-0 -0.007,0.025 -0.008,0.027c-0.008,0.029 -0.015,0.06 -0.024,0.09c-0.024,0.073 -0.043,0.147 -0.063,0.221c-0.006,0.024 -0.01,0.048 -0.012,0.072c-0.001,0.008 -0,0.016 -0.001,0.024c-0,0.004 -0.001,0.013 -0.001,0.013c0,-0 0.013,-0.015 0.018,-0.023c0.013,-0.016 0.026,-0.032 0.038,-0.048c0.036,-0.047 0.077,-0.09 0.114,-0.137c0.075,-0.093 0.154,-0.183 0.238,-0.269c0.022,-0.023 0.044,-0.046 0.064,-0.071c0.003,-0.004 0.019,-0.014 0.019,-0.019c0,-0.002 -0.011,-0.003 -0.013,-0.003c-0.014,-0.002 -0.027,-0.007 -0.04,-0.011c-0.046,-0.015 -0.094,-0.017 -0.141,-0.026c-0.006,-0.001 -0.043,-0.002 -0.047,-0.006c-0.002,-0.002 0.006,-0.015 0.007,-0.016c0.009,-0.018 0.013,-0.035 0.015,-0.054c0.012,-0.081 0.028,-0.162 0.054,-0.24c0.006,-0.019 0.014,-0.038 0.019,-0.057c0.001,-0.003 0.004,-0.026 0.006,-0.026" style="fill:#fff;"/></g></svg>