<?xml version="1.0" encoding="UTF-8" standalone="no"?><!DOCTYPE svg PUBLIC "-//W3C//DTD SVG 1.1//EN" "http://www.w3.org/Graphics/SVG/1.1/DTD/svg11.dtd"><svg width="100%" height="100%" viewBox="0 0 3 2" version="1.1" xmlns="http://www.w3.org/2000/svg" xmlns:xlink="http://www.w3.org/1999/xlink" xml:space="preserve" xmlns:serif="http://www.serif.com/" style="fill-rule:evenodd;clip-rule:evenodd;stroke-linecap:round;stroke-linejoin:round;stroke-miterlimit:1.5;"><rect id="bike" x="0.096" y="0.071" width="1.889" height="1.549" style="fill:none;"/><g id="bike1" serif:id="bike"><path d="M0.422,0.845c-0.002,-0.002 -0.011,0.004 -0.013,0.005c-0.014,0.008 -0.026,0.02 -0.038,0.031c-0.044,0.042 -0.09,0.108 -0.116,0.164c-0.021,0.046 -0.038,0.111 -0.032,0.162c0.015,0.139 0.128,0.245 0.256,0.278c0.052,0.013 0.109,0.022 0.162,0.003c0.092,-0.035 0.179,-0.116 0.212,-0.211c0.017,-0.049 0.017,-0.101 0.016,-0.152c-0.001,-0.042 -0.003,-0.084 -0.022,-0.121c-0.022,-0.043 -0.07,-0.085 -0.108,-0.113c-0.072,-0.052 -0.171,-0.071 -0.257,-0.06c-0.021,0.002 -0.039,0.01 -0.058,0.018c-0.006,0.003 -0.014,0.015 -0.021,0.015" style="fill:none;stroke:#fff;stroke-width:0.12px;"/><path d="M0.533,1.125c0.006,-0.002 0.018,-0.031 0.024,-0.041c0.026,-0.046 0.045,-0.096 0.068,-0.143c0.02,-0.041 0.047,-0.079 0.061,-0.123c0.013,-0.04 0.02,-0.082 0.024,-0.124c0.004,-0.045 0.016,-0.091 0.017,-0.136c0.003,-0.127 -0.055,-0.313 -0.207,-0.313" style="fill:none;stroke:#fff;stroke-width:0.12px;"/><path d="M0.366,0.305c-0.002,-0.002 0.022,-0.012 0.033,-0.018c0.025,-0.014 0.05,-0.027 0.076,-0.04c0.043,-0.022 0.091,-0.047 0.129,-0.078c0.009,-0.007 0.032,-0.032 0.041,-0.032" style="fill:none;stroke:#fff;stroke-width:0.12px;"/><path d="M0.77,0.584c0.059,0.007 0.121,-0.002 0.18,-0.002c0.071,0 0.142,0.008 0.214,0.008c0.036,-0 0.071,-0 0.106,-0.005c0.008,-0.001 0.026,0.003 0.032,-0.002c0.013,-0.01 0.017,-0.031 0.026,-0.045c0.025,-0.039 0.043,-0.085 0.068,-0.122" style="fill:none;stroke:#fff;stroke-width:0.12px;"/><path d="M1.267,0.373c0.002,-0.004 0.054,-0.003 0.058,-0.004c0.053,-0.003 0.112,-0.009 0.163,-0.009" style="fill:none;stroke:#fff;stroke-width:0.12px;"/><path d="M1.32,0.63c0.007,0.028 0.035,0.053 0.05,0.076c0.028,0.043 0.051,0.091 0.075,0.136c0.04,0.074 0.067,0.158 0.106,0.233c0.012,0.023 0.016,0.056 0.034,0.074" style="fill:none;stroke:#fff;stroke-width:0.12px;"/><path d="M1.443,0.835c-0.002,-0.002 -0.013,0.004 -0.014,0.005c-0.015,0.008 -0.029,0.019 -0.043,0.029c-0.064,0.044 -0.107,0.094 -0.143,0.164c-0.053,0.102 -0.033,0.26 0.049,0.341c0.035,0.034 0.083,0.05 0.128,0.063c0.071,0.02 0.139,0.036 0.212,0.014c0.036,-0.011 0.062,-0.033 0.09,-0.058c0.075,-0.068 0.113,-0.152 0.116,-0.254c0.001,-0.028 0.005,-0.055 -0.004,-0.083c-0.044,-0.133 -0.185,-0.246 -0.326,-0.232c-0.032,0.004 -0.064,0.006 -0.094,0.023" style="fill:none;stroke:#fff;stroke-width:0.12px;"/></g></svg>