<?xml version="1.0" encoding="UTF-8" standalone="no"?><!DOCTYPE svg PUBLIC "-//W3C//DTD SVG 1.1//EN" "http://www.w3.org/Graphics/SVG/1.1/DTD/svg11.dtd"><svg width="100%" height="100%" viewBox="0 0 18 22" version="1.1" xmlns="http://www.w3.org/2000/svg" xmlns:xlink="http://www.w3.org/1999/xlink" xml:space="preserve" xmlns:serif="http://www.serif.com/" style="fill-rule:evenodd;clip-rule:evenodd;stroke-linecap:round;stroke-linejoin:round;stroke-miterlimit:1.5;"><rect id="marker-100-many-ebike" x="0.171" y="0.192" width="17.155" height="20.816" style="fill:none;"/><g id="marker-100-many-ebike1" serif:id="marker-100-many-ebike"><g><path d="M9.183,20.012c-0,-0 -5.593,-7.37 -6.279,-9.994c-0.574,-2.194 -0.071,-4.089 0.995,-5.397c1.205,-1.477 2.644,-2.352 4.994,-2.438c2.124,-0.077 4.21,0.768 5.273,2.096c1.063,1.329 2.024,3.682 1.104,5.874c-1.399,3.335 -6.087,9.859 -6.087,9.859Z" style="fill:#eb483c;stroke:#ededed;stroke-width:1px;"/><ellipse cx="4.221" cy="4.711" rx="3.413" ry="3.369" style="fill:#2c313e;"/><path d="M2.877,2.891l-1.531,2.036l0.92,0.003l0.001,1.53l1.593,-2.146l-0.98,0.002l-0.003,-1.425Z" style="fill:#fff;"/><path d="M5.758,2.891l-1.531,2.036l0.919,0.003l0.002,1.53l1.592,-2.146l-0.979,0.002l-0.003,-1.425Z" style="fill:#fff;"/></g></g></svg>