<?xml version="1.0" encoding="UTF-8" standalone="no"?><!DOCTYPE svg PUBLIC "-//W3C//DTD SVG 1.1//EN" "http://www.w3.org/Graphics/SVG/1.1/DTD/svg11.dtd"><svg width="100%" height="100%" viewBox="0 0 18 22" version="1.1" xmlns="http://www.w3.org/2000/svg" xmlns:xlink="http://www.w3.org/1999/xlink" xml:space="preserve" xmlns:serif="http://www.serif.com/" style="fill-rule:evenodd;clip-rule:evenodd;stroke-linecap:round;stroke-linejoin:round;stroke-miterlimit:1.5;"><rect id="marker-80-many-ebike" x="0.063" y="0.192" width="17.155" height="20.816" style="fill:none;"/><clipPath id="_clip1"><rect id="marker-80-many-ebike1" serif:id="marker-80-many-ebike" x="0.063" y="0.192" width="17.155" height="20.816"/></clipPath><g clip-path="url(#_clip1)"><g><path d="M8.932,19.808c0,-0 -5.592,-7.37 -6.278,-9.994c-0.574,-2.194 -0.071,-4.089 0.995,-5.396c1.205,-1.477 2.643,-2.353 4.993,-2.439c2.125,-0.077 4.211,0.768 5.274,2.097c1.063,1.328 2.024,3.681 1.104,5.874c-1.399,3.335 -6.088,9.858 -6.088,9.858Z" style="fill:#f9c8c5;stroke:#ededed;stroke-width:1px;"/><rect x="0.129" y="5.152" width="17.185" height="16.314" style="fill:none;"/><clipPath id="_clip2"><rect x="0.129" y="5.152" width="17.185" height="16.314"/></clipPath><g clip-path="url(#_clip2)"><path d="M8.932,19.808c0,-0 -5.592,-7.37 -6.278,-9.994c-0.574,-2.194 -0.071,-4.089 0.995,-5.396c1.205,-1.477 2.643,-2.353 4.993,-2.439c2.125,-0.077 4.211,0.768 5.274,2.097c1.063,1.328 2.024,3.681 1.104,5.874c-1.399,3.335 -6.088,9.858 -6.088,9.858Z" style="fill:#eb483c;stroke:#ededed;stroke-width:1px;"/></g><ellipse cx="3.97" cy="4.507" rx="3.413" ry="3.369" style="fill:#2c313e;"/><path d="M2.769,2.891l-1.532,2.036l0.92,0.003l0.001,1.53l1.593,-2.146l-0.98,0.002l-0.002,-1.425Z" style="fill:#fff;"/><path d="M5.649,2.891l-1.531,2.036l0.92,0.003l0.001,1.53l1.593,-2.146l-0.98,0.002l-0.003,-1.425Z" style="fill:#fff;"/></g></g></svg>