<?xml version="1.0" encoding="UTF-8" standalone="no"?><!DOCTYPE svg PUBLIC "-//W3C//DTD SVG 1.1//EN" "http://www.w3.org/Graphics/SVG/1.1/DTD/svg11.dtd"><svg width="100%" height="100%" viewBox="0 0 18 22" version="1.1" xmlns="http://www.w3.org/2000/svg" xmlns:xlink="http://www.w3.org/1999/xlink" xml:space="preserve" xmlns:serif="http://www.serif.com/" style="fill-rule:evenodd;clip-rule:evenodd;stroke-linecap:round;stroke-linejoin:round;stroke-miterlimit:1.5;"><rect id="marker-0-many-ebike" x="0.141" y="0.057" width="17.155" height="20.95" style="fill:none;"/><g id="marker-0-many-ebike1" serif:id="marker-0-many-ebike"><g><path d="M9.011,19.808c-0,-0 -5.593,-7.37 -6.279,-9.994c-0.574,-2.194 -0.071,-4.089 0.995,-5.396c1.205,-1.477 2.644,-2.353 4.993,-2.439c2.125,-0.077 4.211,0.768 5.274,2.097c1.063,1.328 2.024,3.681 1.104,5.874c-1.399,3.335 -6.087,9.858 -6.087,9.858Z" style="fill:#f9c8c5;stroke:#ededed;stroke-width:1px;"/><ellipse cx="4.049" cy="4.507" rx="3.413" ry="3.369" style="fill:#2c313e;"/><path d="M2.847,2.757l-1.532,2.036l0.92,0.002l0.001,1.531l1.593,-2.146l-0.979,0.001l-0.003,-1.424Z" style="fill:#fff;"/><path d="M5.728,2.757l-1.532,2.036l0.92,0.002l0.001,1.531l1.593,-2.146l-0.98,0.001l-0.002,-1.424Z" style="fill:#fff;"/></g></g></svg>