<?xml version="1.0" encoding="UTF-8" standalone="no"?><!DOCTYPE svg PUBLIC "-//W3C//DTD SVG 1.1//EN" "http://www.w3.org/Graphics/SVG/1.1/DTD/svg11.dtd"><svg width="100%" height="100%" viewBox="0 0 18 22" version="1.1" xmlns="http://www.w3.org/2000/svg" xmlns:xlink="http://www.w3.org/1999/xlink" xml:space="preserve" xmlns:serif="http://www.serif.com/" style="fill-rule:evenodd;clip-rule:evenodd;stroke-linecap:round;stroke-linejoin:round;stroke-miterlimit:1.5;"><rect id="marker-60" x="0.219" y="0.155" width="17.155" height="20.816" style="fill:none;"/><clipPath id="_clip1"><rect id="marker-601" serif:id="marker-60" x="0.219" y="0.155" width="17.155" height="20.816"/></clipPath><g clip-path="url(#_clip1)"><g><path d="M9.088,19.772c0,-0 -5.592,-7.37 -6.278,-9.994c-0.574,-2.194 -0.071,-4.089 0.995,-5.396c1.205,-1.477 2.643,-2.353 4.993,-2.439c2.125,-0.077 4.211,0.768 5.274,2.097c1.063,1.328 2.024,3.681 1.104,5.873c-1.399,3.336 -6.088,9.859 -6.088,9.859Z" style="fill:#f9c8c5;stroke:#ededed;stroke-width:1px;"/><rect x="0.285" y="7.481" width="17.185" height="13.948" style="fill:none;"/><clipPath id="_clip2"><rect x="0.285" y="7.481" width="17.185" height="13.948"/></clipPath><g clip-path="url(#_clip2)"><path d="M9.088,19.772c0,-0 -5.592,-7.37 -6.278,-9.994c-0.574,-2.194 -0.071,-4.089 0.995,-5.396c1.205,-1.477 2.643,-2.353 4.993,-2.439c2.125,-0.077 4.211,0.768 5.274,2.097c1.063,1.328 2.024,3.681 1.104,5.873c-1.399,3.336 -6.088,9.859 -6.088,9.859Z" style="fill:#eb483c;stroke:#ededed;stroke-width:1px;"/></g></g></g></svg>