<?xml version="1.0" encoding="UTF-8" standalone="no"?><!DOCTYPE svg PUBLIC "-//W3C//DTD SVG 1.1//EN" "http://www.w3.org/Graphics/SVG/1.1/DTD/svg11.dtd"><svg width="100%" height="100%" viewBox="0 0 18 22" version="1.1" xmlns="http://www.w3.org/2000/svg" xmlns:xlink="http://www.w3.org/1999/xlink" xml:space="preserve" xmlns:serif="http://www.serif.com/" style="fill-rule:evenodd;clip-rule:evenodd;stroke-linecap:round;stroke-linejoin:round;stroke-miterlimit:1.5;"><rect id="marker-20-many-ebike" x="-0.001" y="0.192" width="17.155" height="20.816" style="fill:none;"/><g id="marker-20-many-ebike1" serif:id="marker-20-many-ebike"><g><path d="M8.869,19.808c-0,-0 -5.592,-7.37 -6.279,-9.994c-0.574,-2.194 -0.071,-4.089 0.996,-5.396c1.204,-1.477 2.643,-2.353 4.993,-2.439c2.124,-0.077 4.21,0.768 5.273,2.097c1.063,1.328 2.024,3.681 1.104,5.874c-1.399,3.335 -6.087,9.858 -6.087,9.858Z" style="fill:#f9c8c5;stroke:#ededed;stroke-width:1px;"/><path d="M8.851,18.969l-2.586,-3.669l5.078,-0.029l-2.492,3.698Z" style="fill:#eb483c;"/><ellipse cx="3.907" cy="4.507" rx="3.413" ry="3.369" style="fill:#2c313e;"/><path d="M2.705,2.891l-1.532,2.036l0.92,0.003l0.002,1.53l1.592,-2.146l-0.979,0.002l-0.003,-1.425Z" style="fill:#fff;"/><path d="M5.586,2.891l-1.532,2.036l0.92,0.003l0.001,1.53l1.593,-2.146l-0.979,0.002l-0.003,-1.425Z" style="fill:#fff;"/></g></g></svg>