<?xml version="1.0" encoding="UTF-8" standalone="no"?><!DOCTYPE svg PUBLIC "-//W3C//DTD SVG 1.1//EN" "http://www.w3.org/Graphics/SVG/1.1/DTD/svg11.dtd"><svg width="100%" height="100%" viewBox="0 0 18 22" version="1.1" xmlns="http://www.w3.org/2000/svg" xmlns:xlink="http://www.w3.org/1999/xlink" xml:space="preserve" xmlns:serif="http://www.serif.com/" style="fill-rule:evenodd;clip-rule:evenodd;stroke-linecap:round;stroke-linejoin:round;stroke-miterlimit:1.5;"><rect id="marker-40-ebike" x="0.097" y="0.237" width="17.155" height="20.816" style="fill:none;"/><g id="marker-40-ebike1" serif:id="marker-40-ebike"><g><path d="M8.967,19.853c-0,0 -5.592,-7.369 -6.279,-9.993c-0.574,-2.194 -0.07,-4.089 0.996,-5.397c1.204,-1.477 2.643,-2.353 4.993,-2.438c2.124,-0.078 4.211,0.768 5.274,2.096c1.063,1.329 2.023,3.682 1.104,5.874c-1.4,3.335 -6.088,9.858 -6.088,9.858Z" style="fill:#f9c8c5;stroke:#ededed;stroke-width:1px;"/><path d="M8.949,19.014l-4.219,-6.216l8.321,-0.066l-4.102,6.282Z" style="fill:#eb483c;"/><ellipse cx="4.005" cy="4.552" rx="3.413" ry="3.369" style="fill:#2c313e;"/><path d="M4.554,1.853l-2.401,3.192l1.442,0.004l0.002,2.4l2.497,-3.365l-1.535,0.003l-0.005,-2.234Z" style="fill:#fff;"/></g></g></svg>