<?xml version="1.0" encoding="UTF-8" standalone="no"?><!DOCTYPE svg PUBLIC "-//W3C//DTD SVG 1.1//EN" "http://www.w3.org/Graphics/SVG/1.1/DTD/svg11.dtd"><svg width="100%" height="100%" viewBox="0 0 18 22" version="1.1" xmlns="http://www.w3.org/2000/svg" xmlns:xlink="http://www.w3.org/1999/xlink" xml:space="preserve" xmlns:serif="http://www.serif.com/" style="fill-rule:evenodd;clip-rule:evenodd;stroke-linecap:round;stroke-linejoin:round;stroke-miterlimit:1.5;"><rect id="marker-100-ebike" x="0.171" y="0.237" width="17.155" height="20.816" style="fill:none;"/><g id="marker-100-ebike1" serif:id="marker-100-ebike"><g><path d="M9.183,20.057c-0,0 -5.593,-7.37 -6.279,-9.993c-0.574,-2.195 -0.071,-4.09 0.995,-5.397c1.205,-1.477 2.644,-2.353 4.994,-2.439c2.124,-0.077 4.21,0.769 5.273,2.097c1.063,1.328 2.024,3.681 1.104,5.874c-1.399,3.335 -6.087,9.858 -6.087,9.858Z" style="fill:#eb483c;stroke:#ededed;stroke-width:1px;"/><ellipse cx="4.221" cy="4.756" rx="3.413" ry="3.369" style="fill:#2c313e;"/><path d="M4.77,2.057l-2.401,3.192l1.442,0.004l0.002,2.4l2.497,-3.365l-1.536,0.002l-0.004,-2.233Z" style="fill:#fff;"/></g></g></svg>